<svg xmlns="http://www.w3.org/2000/svg" xmlns:xlink="http://www.w3.org/1999/xlink" width="500" zoomAndPan="magnify" viewBox="0 0 375 374.999991" height="500" preserveAspectRatio="xMidYMid meet" version="1.2"><defs><clipPath id="456d7acd4f"><path d="M 101.917969 154 L 171 154 L 171 194.75 L 101.917969 194.75 Z M 101.917969 154 "/></clipPath><clipPath id="7521c98def"><path d="M 204 154 L 272.917969 154 L 272.917969 194.75 L 204 194.75 Z M 204 154 "/></clipPath><clipPath id="1736e9434b"><path d="M 120 115.25 L 151 115.25 L 151 184 L 120 184 Z M 120 115.25 "/></clipPath><clipPath id="94da9138d0"><path d="M 224 115.25 L 255 115.25 L 255 184 L 224 184 Z M 224 115.25 "/></clipPath></defs><g id="b71cb6ed48"><g clip-rule="nonzero" clip-path="url(#456d7acd4f)"><path style=" stroke:none;fill-rule:nonzero;fill:#00adef;fill-opacity:1;" d="M 109.375 154.003906 C 104.617188 157.636719 101.964844 161.648438 101.964844 165.867188 C 101.964844 179.941406 131.332031 191.679688 170.316406 194.371094 C 140.992188 189.917969 117.550781 174.246094 109.375 154.003906 Z M 109.375 154.003906 "/></g><g clip-rule="nonzero" clip-path="url(#7521c98def)"><path style=" stroke:none;fill-rule:nonzero;fill:#00adef;fill-opacity:1;" d="M 265.429688 154.003906 C 257.257812 174.246094 233.816406 189.917969 204.488281 194.371094 C 243.484375 191.679688 272.839844 179.941406 272.839844 165.867188 C 272.792969 161.648438 270.140625 157.636719 265.429688 154.003906 Z M 265.429688 154.003906 "/></g><g clip-rule="nonzero" clip-path="url(#1736e9434b)"><path style=" stroke:none;fill-rule:nonzero;fill:#00adef;fill-opacity:1;" d="M 132.886719 145.378906 C 132.890625 142.6875 133.101562 140.011719 133.527344 137.351562 C 133.957031 134.691406 134.589844 132.085938 135.429688 129.527344 C 136.269531 126.96875 137.304688 124.492188 138.539062 122.097656 C 139.773438 119.703125 141.1875 117.421875 142.785156 115.25 C 128.816406 123.191406 120.007812 134.828125 120.007812 147.710938 C 120.007812 162.84375 132.09375 176.164062 150.398438 183.925781 C 147.65625 181.519531 145.199219 178.847656 143.023438 175.917969 C 140.847656 172.984375 139.007812 169.859375 137.496094 166.535156 C 135.988281 163.214844 134.84375 159.769531 134.066406 156.203125 C 133.289062 152.636719 132.898438 149.03125 132.886719 145.378906 Z M 132.886719 145.378906 "/></g><g clip-rule="nonzero" clip-path="url(#94da9138d0)"><path style=" stroke:none;fill-rule:nonzero;fill:#00adef;fill-opacity:1;" d="M 231.972656 115.25 C 233.570312 117.421875 234.984375 119.703125 236.21875 122.097656 C 237.453125 124.492188 238.488281 126.96875 239.328125 129.527344 C 240.167969 132.085938 240.800781 134.691406 241.230469 137.351562 C 241.65625 140.011719 241.867188 142.6875 241.871094 145.378906 C 241.855469 149.03125 241.460938 152.636719 240.679688 156.203125 C 239.898438 159.765625 238.75 163.210938 237.238281 166.53125 C 235.726562 169.851562 233.878906 172.976562 231.703125 175.90625 C 229.527344 178.835938 227.066406 181.5 224.320312 183.90625 C 242.625 176.164062 254.710938 162.84375 254.710938 147.691406 C 254.753906 134.828125 245.941406 123.191406 231.972656 115.25 Z M 231.972656 115.25 "/></g><path style=" stroke:none;fill-rule:nonzero;fill:#00adef;fill-opacity:1;" d="M 214.765625 142.070312 C 214.765625 149.058594 212.144531 158.429688 207.828125 166.542969 C 203.441406 176.242188 201.601562 185.140625 201.730469 193.039062 C 202.464844 192.734375 203.191406 192.40625 203.90625 192.058594 C 204.625 191.707031 205.328125 191.335938 206.019531 190.941406 C 206.710938 190.542969 207.390625 190.128906 208.058594 189.6875 C 208.722656 189.25 209.375 188.792969 210.011719 188.3125 C 210.648438 187.832031 211.265625 187.332031 211.871094 186.8125 C 212.476562 186.292969 213.0625 185.753906 213.632812 185.199219 C 214.203125 184.640625 214.757812 184.066406 215.289062 183.472656 C 215.824219 182.882812 216.335938 182.273438 216.832031 181.648438 C 217.328125 181.023438 217.800781 180.382812 218.257812 179.726562 C 218.710938 179.074219 219.144531 178.40625 219.554688 177.722656 C 219.964844 177.039062 220.355469 176.34375 220.722656 175.636719 C 221.089844 174.929688 221.433594 174.210938 221.753906 173.480469 C 222.078125 172.75 222.375 172.011719 222.648438 171.265625 C 222.921875 170.515625 223.171875 169.757812 223.398438 168.996094 C 223.625 168.230469 223.828125 167.460938 224.003906 166.683594 C 224.179688 165.90625 224.332031 165.125 224.460938 164.335938 C 224.585938 163.550781 224.691406 162.757812 224.765625 161.964844 C 224.84375 161.171875 224.894531 160.378906 224.921875 159.582031 C 224.949219 158.785156 224.949219 157.988281 224.921875 157.191406 C 224.898438 156.394531 224.847656 155.597656 224.773438 154.804688 C 224.699219 154.011719 224.597656 153.222656 224.472656 152.433594 C 224.347656 151.648438 224.195312 150.863281 224.019531 150.085938 C 223.84375 149.308594 223.644531 148.539062 223.421875 147.773438 C 223.195312 147.007812 222.949219 146.253906 222.675781 145.503906 C 222.402344 144.753906 222.105469 144.015625 221.785156 143.285156 C 221.464844 142.554688 221.121094 141.835938 220.757812 141.128906 C 220.390625 140.417969 220.003906 139.722656 219.59375 139.039062 C 219.183594 138.355469 218.75 137.6875 218.296875 137.03125 C 217.84375 136.375 217.371094 135.734375 216.878906 135.109375 C 216.386719 134.480469 215.871094 133.871094 215.339844 133.277344 C 214.808594 132.6875 214.257812 132.109375 213.6875 131.550781 C 213.117188 130.996094 212.53125 130.453125 211.929688 129.933594 C 213.824219 133.757812 214.769531 137.804688 214.765625 142.070312 Z M 214.765625 142.070312 "/><path style=" stroke:none;fill-rule:nonzero;fill:#00adef;fill-opacity:1;" d="M 173.019531 192.992188 C 173.15625 185.0625 171.304688 176.195312 166.921875 166.492188 C 162.613281 158.429688 159.992188 149.058594 159.992188 142.023438 C 159.996094 137.773438 160.941406 133.742188 162.828125 129.933594 C 162.226562 130.453125 161.644531 130.996094 161.074219 131.550781 C 160.507812 132.109375 159.957031 132.6875 159.425781 133.277344 C 158.894531 133.871094 158.382812 134.480469 157.890625 135.105469 C 157.398438 135.730469 156.925781 136.371094 156.476562 137.027344 C 156.023438 137.683594 155.59375 138.351562 155.183594 139.035156 C 154.773438 139.71875 154.386719 140.414062 154.023438 141.121094 C 153.660156 141.828125 153.316406 142.546875 152.996094 143.277344 C 152.679688 144.007812 152.382812 144.746094 152.109375 145.496094 C 151.839844 146.242188 151.589844 147 151.367188 147.761719 C 151.144531 148.527344 150.945312 149.296875 150.769531 150.074219 C 150.59375 150.851562 150.445312 151.632812 150.320312 152.417969 C 150.191406 153.203125 150.09375 153.992188 150.019531 154.785156 C 149.941406 155.578125 149.894531 156.371094 149.871094 157.167969 C 149.84375 157.964844 149.847656 158.761719 149.871094 159.554688 C 149.898438 160.351562 149.949219 161.144531 150.027344 161.9375 C 150.101562 162.730469 150.207031 163.519531 150.332031 164.304688 C 150.460938 165.089844 150.609375 165.871094 150.789062 166.648438 C 150.964844 167.425781 151.164062 168.195312 151.390625 168.957031 C 151.617188 169.722656 151.867188 170.476562 152.140625 171.222656 C 152.414062 171.972656 152.710938 172.710938 153.03125 173.4375 C 153.351562 174.167969 153.695312 174.886719 154.0625 175.59375 C 154.429688 176.296875 154.816406 176.992188 155.230469 177.675781 C 155.640625 178.355469 156.070312 179.027344 156.523438 179.679688 C 156.976562 180.335938 157.453125 180.972656 157.945312 181.597656 C 158.4375 182.222656 158.953125 182.832031 159.484375 183.421875 C 160.015625 184.015625 160.566406 184.589844 161.136719 185.144531 C 161.707031 185.703125 162.292969 186.242188 162.894531 186.757812 C 163.5 187.277344 164.117188 187.777344 164.753906 188.257812 C 165.390625 188.738281 166.039062 189.199219 166.703125 189.636719 C 167.367188 190.074219 168.042969 190.492188 168.734375 190.886719 C 169.425781 191.285156 170.128906 191.65625 170.84375 192.007812 C 171.558594 192.359375 172.285156 192.6875 173.019531 192.992188 Z M 173.019531 192.992188 "/><path style=" stroke:none;fill-rule:nonzero;fill:#00adef;fill-opacity:1;" d="M 187.378906 119.605469 C 178.414062 119.605469 171.148438 128.464844 171.148438 139.398438 C 171.148438 147.582031 175.222656 154.601562 181.015625 157.617188 C 180.375 157.167969 179.789062 156.65625 179.257812 156.082031 C 178.726562 155.511719 178.261719 154.886719 177.859375 154.21875 C 177.460938 153.546875 177.136719 152.839844 176.882812 152.097656 C 176.632812 151.359375 176.464844 150.601562 176.371094 149.824219 C 176.28125 149.046875 176.273438 148.269531 176.347656 147.492188 C 176.421875 146.714844 176.578125 145.953125 176.8125 145.207031 C 177.046875 144.460938 177.359375 143.75 177.746094 143.070312 C 178.128906 142.390625 178.582031 141.757812 179.101562 141.175781 C 179.625 140.59375 180.199219 140.070312 180.828125 139.605469 C 181.460938 139.144531 182.132812 138.753906 182.84375 138.433594 C 183.558594 138.113281 184.296875 137.871094 185.058594 137.707031 C 185.824219 137.546875 186.597656 137.464844 187.378906 137.464844 C 188.160156 137.464844 188.933594 137.546875 189.699219 137.707031 C 190.460938 137.871094 191.199219 138.113281 191.914062 138.433594 C 192.628906 138.753906 193.296875 139.144531 193.929688 139.605469 C 194.558594 140.070312 195.132812 140.59375 195.65625 141.175781 C 196.175781 141.757812 196.628906 142.390625 197.011719 143.070312 C 197.398438 143.75 197.710938 144.460938 197.945312 145.207031 C 198.179688 145.953125 198.335938 146.714844 198.410156 147.492188 C 198.484375 148.269531 198.476562 149.046875 198.386719 149.824219 C 198.292969 150.601562 198.125 151.359375 197.875 152.097656 C 197.621094 152.839844 197.296875 153.546875 196.898438 154.21875 C 196.496094 154.886719 196.03125 155.511719 195.5 156.082031 C 194.96875 156.65625 194.382812 157.167969 193.742188 157.617188 C 199.535156 154.601562 203.609375 147.554688 203.609375 139.398438 C 203.609375 128.464844 196.335938 119.605469 187.378906 119.605469 Z M 187.378906 119.605469 "/><g style="fill:#000000;fill-opacity:1;"><g transform="translate(128.881488, 235.767301)"><path style="stroke:none" d="M 11.65625 -10.1875 L 7.796875 -6.21875 L 7.796875 0 L 3.265625 0 L 3.265625 -24.34375 L 7.796875 -24.34375 L 7.796875 -11.859375 L 19.828125 -24.34375 L 24.90625 -24.34375 L 14.671875 -13.453125 L 25.53125 0 L 20.25 0 Z M 11.65625 -10.1875 "/></g></g><g style="fill:#000000;fill-opacity:1;"><g transform="translate(154.232171, 235.767301)"><path style="stroke:none" d="M 19.0625 -5.640625 L 6.890625 -5.640625 L 4.484375 0 L -0.171875 0 L 10.78125 -24.34375 L 15.234375 -24.34375 L 26.21875 0 L 21.5 0 Z M 17.5625 -9.1875 L 12.96875 -19.828125 L 8.421875 -9.1875 Z M 17.5625 -9.1875 "/></g></g><g style="fill:#000000;fill-opacity:1;"><g transform="translate(180.278339, 235.767301)"><path style="stroke:none" d="M 3.265625 -24.34375 L 7.796875 -24.34375 L 7.796875 0 L 3.265625 0 Z M 3.265625 -24.34375 "/></g></g><g style="fill:#000000;fill-opacity:1;"><g transform="translate(191.371432, 235.767301)"><path style="stroke:none" d="M 19.203125 0 L 14.21875 -7.125 C 14.007812 -7.101562 13.695312 -7.09375 13.28125 -7.09375 L 7.796875 -7.09375 L 7.796875 0 L 3.265625 0 L 3.265625 -24.34375 L 13.28125 -24.34375 C 15.394531 -24.34375 17.234375 -23.992188 18.796875 -23.296875 C 20.359375 -22.609375 21.554688 -21.613281 22.390625 -20.3125 C 23.234375 -19.007812 23.65625 -17.46875 23.65625 -15.6875 C 23.65625 -13.851562 23.207031 -12.273438 22.3125 -10.953125 C 21.414062 -9.628906 20.132812 -8.644531 18.46875 -8 L 24.0625 0 Z M 19.09375 -15.6875 C 19.09375 -17.238281 18.582031 -18.429688 17.5625 -19.265625 C 16.539062 -20.097656 15.046875 -20.515625 13.078125 -20.515625 L 7.796875 -20.515625 L 7.796875 -10.8125 L 13.078125 -10.8125 C 15.046875 -10.8125 16.539062 -11.234375 17.5625 -12.078125 C 18.582031 -12.929688 19.09375 -14.132812 19.09375 -15.6875 Z M 19.09375 -15.6875 "/></g></g><g style="fill:#000000;fill-opacity:1;"><g transform="translate(216.791676, 235.767301)"><path style="stroke:none" d="M 14.640625 0.34375 C 12.160156 0.34375 9.921875 -0.191406 7.921875 -1.265625 C 5.929688 -2.347656 4.367188 -3.84375 3.234375 -5.75 C 2.097656 -7.664062 1.53125 -9.804688 1.53125 -12.171875 C 1.53125 -14.535156 2.097656 -16.671875 3.234375 -18.578125 C 4.367188 -20.492188 5.929688 -21.988281 7.921875 -23.0625 C 9.921875 -24.144531 12.160156 -24.6875 14.640625 -24.6875 C 17.117188 -24.6875 19.351562 -24.144531 21.34375 -23.0625 C 23.34375 -21.988281 24.910156 -20.5 26.046875 -18.59375 C 27.179688 -16.695312 27.75 -14.554688 27.75 -12.171875 C 27.75 -9.785156 27.179688 -7.640625 26.046875 -5.734375 C 24.910156 -3.835938 23.34375 -2.347656 21.34375 -1.265625 C 19.351562 -0.191406 17.117188 0.34375 14.640625 0.34375 Z M 14.640625 -3.625 C 16.265625 -3.625 17.722656 -3.988281 19.015625 -4.71875 C 20.316406 -5.445312 21.335938 -6.460938 22.078125 -7.765625 C 22.828125 -9.078125 23.203125 -10.546875 23.203125 -12.171875 C 23.203125 -13.796875 22.828125 -15.257812 22.078125 -16.5625 C 21.335938 -17.875 20.316406 -18.894531 19.015625 -19.625 C 17.722656 -20.363281 16.265625 -20.734375 14.640625 -20.734375 C 13.015625 -20.734375 11.550781 -20.363281 10.25 -19.625 C 8.957031 -18.894531 7.941406 -17.875 7.203125 -16.5625 C 6.460938 -15.257812 6.09375 -13.796875 6.09375 -12.171875 C 6.09375 -10.546875 6.460938 -9.078125 7.203125 -7.765625 C 7.941406 -6.460938 8.957031 -5.445312 10.25 -4.71875 C 11.550781 -3.988281 13.015625 -3.625 14.640625 -3.625 Z M 14.640625 -3.625 "/></g></g><g style="fill:#000000;fill-opacity:1;"><g transform="translate(128.091756, 256.075018)"><path style="stroke:none" d="M 2.828125 -7.0625 L 0.046875 -7.0625 L 0.046875 -8.703125 L 7.640625 -8.703125 L 7.640625 -7.0625 L 4.84375 -7.0625 L 4.84375 0 L 2.828125 0 Z M 2.828125 -7.0625 "/></g></g><g style="fill:#000000;fill-opacity:1;"><g transform="translate(136.945946, 256.075018)"><path style="stroke:none" d="M 7.78125 -1.609375 L 7.78125 0 L 1.03125 0 L 1.03125 -8.703125 L 7.609375 -8.703125 L 7.609375 -7.09375 L 3.03125 -7.09375 L 3.03125 -5.203125 L 7.078125 -5.203125 L 7.078125 -3.625 L 3.03125 -3.625 L 3.03125 -1.609375 Z M 7.78125 -1.609375 "/></g></g><g style="fill:#000000;fill-opacity:1;"><g transform="translate(146.459121, 256.075018)"><path style="stroke:none" d="M 6.578125 0 L 4.90625 -2.421875 L 3.046875 -2.421875 L 3.046875 0 L 1.03125 0 L 1.03125 -8.703125 L 4.796875 -8.703125 C 5.566406 -8.703125 6.234375 -8.570312 6.796875 -8.3125 C 7.367188 -8.0625 7.804688 -7.695312 8.109375 -7.21875 C 8.421875 -6.75 8.578125 -6.191406 8.578125 -5.546875 C 8.578125 -4.898438 8.421875 -4.34375 8.109375 -3.875 C 7.804688 -3.40625 7.367188 -3.046875 6.796875 -2.796875 L 8.75 0 Z M 6.546875 -5.546875 C 6.546875 -6.035156 6.382812 -6.410156 6.0625 -6.671875 C 5.75 -6.929688 5.289062 -7.0625 4.6875 -7.0625 L 3.046875 -7.0625 L 3.046875 -4.03125 L 4.6875 -4.03125 C 5.289062 -4.03125 5.75 -4.160156 6.0625 -4.421875 C 6.382812 -4.691406 6.546875 -5.066406 6.546875 -5.546875 Z M 6.546875 -5.546875 "/></g></g><g style="fill:#000000;fill-opacity:1;"><g transform="translate(156.76805, 256.075018)"><path style="stroke:none" d="M 6.765625 -1.859375 L 2.71875 -1.859375 L 1.953125 0 L -0.109375 0 L 3.765625 -8.703125 L 5.765625 -8.703125 L 9.65625 0 L 7.53125 0 Z M 6.125 -3.390625 L 4.75 -6.734375 L 3.375 -3.390625 Z M 6.125 -3.390625 "/></g></g><g style="fill:#000000;fill-opacity:1;"><g transform="translate(167.462416, 256.075018)"><path style="stroke:none" d="M 4.796875 -8.703125 C 5.566406 -8.703125 6.234375 -8.570312 6.796875 -8.3125 C 7.367188 -8.0625 7.804688 -7.695312 8.109375 -7.21875 C 8.421875 -6.75 8.578125 -6.191406 8.578125 -5.546875 C 8.578125 -4.910156 8.421875 -4.351562 8.109375 -3.875 C 7.804688 -3.394531 7.367188 -3.03125 6.796875 -2.78125 C 6.234375 -2.53125 5.566406 -2.40625 4.796875 -2.40625 L 3.046875 -2.40625 L 3.046875 0 L 1.03125 0 L 1.03125 -8.703125 Z M 4.6875 -4.046875 C 5.289062 -4.046875 5.75 -4.175781 6.0625 -4.4375 C 6.382812 -4.695312 6.546875 -5.066406 6.546875 -5.546875 C 6.546875 -6.035156 6.382812 -6.410156 6.0625 -6.671875 C 5.75 -6.929688 5.289062 -7.0625 4.6875 -7.0625 L 3.046875 -7.0625 L 3.046875 -4.046875 Z M 4.6875 -4.046875 "/></g></g><g style="fill:#000000;fill-opacity:1;"><g transform="translate(177.734037, 256.075018)"><path style="stroke:none" d="M 1.03125 -8.703125 L 3.046875 -8.703125 L 3.046875 0 L 1.03125 0 Z M 1.03125 -8.703125 "/></g></g><g style="fill:#000000;fill-opacity:1;"><g transform="translate(182.982469, 256.075018)"><path style="stroke:none" d="M 6.765625 -1.859375 L 2.71875 -1.859375 L 1.953125 0 L -0.109375 0 L 3.765625 -8.703125 L 5.765625 -8.703125 L 9.65625 0 L 7.53125 0 Z M 6.125 -3.390625 L 4.75 -6.734375 L 3.375 -3.390625 Z M 6.125 -3.390625 "/></g></g><g style="fill:#000000;fill-opacity:1;"><g transform="translate(193.676834, 256.075018)"><path style="stroke:none" d=""/></g></g><g style="fill:#000000;fill-opacity:1;"><g transform="translate(198.365753, 256.075018)"><path style="stroke:none" d="M 3.046875 -7.09375 L 3.046875 -4.78125 L 7.078125 -4.78125 L 7.078125 -3.171875 L 3.046875 -3.171875 L 3.046875 0 L 1.03125 0 L 1.03125 -8.703125 L 7.609375 -8.703125 L 7.609375 -7.09375 Z M 3.046875 -7.09375 "/></g></g><g style="fill:#000000;fill-opacity:1;"><g transform="translate(207.481052, 256.075018)"><path style="stroke:none" d="M 1.03125 -8.703125 L 3.046875 -8.703125 L 3.046875 0 L 1.03125 0 Z M 2.578125 -11.203125 L 4.671875 -11.203125 L 2.421875 -9.421875 L 0.90625 -9.421875 Z M 2.578125 -11.203125 "/></g></g><g style="fill:#000000;fill-opacity:1;"><g transform="translate(212.729484, 256.075018)"><path style="stroke:none" d="M 3.890625 0.15625 C 3.203125 0.15625 2.535156 0.0625 1.890625 -0.125 C 1.253906 -0.3125 0.738281 -0.554688 0.34375 -0.859375 L 1.03125 -2.375 C 1.40625 -2.101562 1.847656 -1.882812 2.359375 -1.71875 C 2.878906 -1.550781 3.394531 -1.46875 3.90625 -1.46875 C 4.476562 -1.46875 4.898438 -1.550781 5.171875 -1.71875 C 5.441406 -1.894531 5.578125 -2.125 5.578125 -2.40625 C 5.578125 -2.613281 5.492188 -2.785156 5.328125 -2.921875 C 5.171875 -3.054688 4.96875 -3.164062 4.71875 -3.25 C 4.46875 -3.332031 4.125 -3.421875 3.6875 -3.515625 C 3.03125 -3.671875 2.488281 -3.828125 2.0625 -3.984375 C 1.644531 -4.148438 1.28125 -4.40625 0.96875 -4.75 C 0.664062 -5.101562 0.515625 -5.566406 0.515625 -6.140625 C 0.515625 -6.648438 0.648438 -7.109375 0.921875 -7.515625 C 1.203125 -7.929688 1.617188 -8.257812 2.171875 -8.5 C 2.722656 -8.738281 3.394531 -8.859375 4.1875 -8.859375 C 4.75 -8.859375 5.289062 -8.789062 5.8125 -8.65625 C 6.34375 -8.519531 6.8125 -8.328125 7.21875 -8.078125 L 6.59375 -6.546875 C 5.789062 -7.003906 4.984375 -7.234375 4.171875 -7.234375 C 3.609375 -7.234375 3.191406 -7.140625 2.921875 -6.953125 C 2.660156 -6.773438 2.53125 -6.539062 2.53125 -6.25 C 2.53125 -5.945312 2.679688 -5.722656 2.984375 -5.578125 C 3.296875 -5.429688 3.773438 -5.289062 4.421875 -5.15625 C 5.078125 -4.988281 5.613281 -4.828125 6.03125 -4.671875 C 6.457031 -4.515625 6.820312 -4.265625 7.125 -3.921875 C 7.4375 -3.585938 7.59375 -3.128906 7.59375 -2.546875 C 7.59375 -2.046875 7.453125 -1.59375 7.171875 -1.1875 C 6.890625 -0.78125 6.472656 -0.453125 5.921875 -0.203125 C 5.367188 0.0351562 4.691406 0.15625 3.890625 0.15625 Z M 3.890625 0.15625 "/></g></g><g style="fill:#000000;fill-opacity:1;"><g transform="translate(221.832343, 256.075018)"><path style="stroke:none" d="M 1.03125 -8.703125 L 3.046875 -8.703125 L 3.046875 0 L 1.03125 0 Z M 1.03125 -8.703125 "/></g></g><g style="fill:#000000;fill-opacity:1;"><g transform="translate(227.080774, 256.075018)"><path style="stroke:none" d="M 5.203125 0.15625 C 4.316406 0.15625 3.515625 -0.0351562 2.796875 -0.421875 C 2.078125 -0.804688 1.507812 -1.34375 1.09375 -2.03125 C 0.6875 -2.71875 0.484375 -3.492188 0.484375 -4.359375 C 0.484375 -5.210938 0.6875 -5.984375 1.09375 -6.671875 C 1.507812 -7.359375 2.078125 -7.894531 2.796875 -8.28125 C 3.515625 -8.664062 4.320312 -8.859375 5.21875 -8.859375 C 5.96875 -8.859375 6.644531 -8.722656 7.25 -8.453125 C 7.863281 -8.191406 8.378906 -7.8125 8.796875 -7.3125 L 7.5 -6.125 C 6.90625 -6.800781 6.175781 -7.140625 5.3125 -7.140625 C 4.769531 -7.140625 4.285156 -7.019531 3.859375 -6.78125 C 3.441406 -6.550781 3.113281 -6.222656 2.875 -5.796875 C 2.644531 -5.367188 2.53125 -4.890625 2.53125 -4.359375 C 2.53125 -3.816406 2.644531 -3.332031 2.875 -2.90625 C 3.113281 -2.488281 3.441406 -2.160156 3.859375 -1.921875 C 4.285156 -1.679688 4.769531 -1.5625 5.3125 -1.5625 C 6.175781 -1.5625 6.90625 -1.90625 7.5 -2.59375 L 8.796875 -1.40625 C 8.378906 -0.894531 7.863281 -0.503906 7.25 -0.234375 C 6.632812 0.0234375 5.953125 0.15625 5.203125 0.15625 Z M 5.203125 0.15625 "/></g></g><g style="fill:#000000;fill-opacity:1;"><g transform="translate(237.364835, 256.075018)"><path style="stroke:none" d="M 6.765625 -1.859375 L 2.71875 -1.859375 L 1.953125 0 L -0.109375 0 L 3.765625 -8.703125 L 5.765625 -8.703125 L 9.65625 0 L 7.53125 0 Z M 6.125 -3.390625 L 4.75 -6.734375 L 3.375 -3.390625 Z M 6.125 -3.390625 "/></g></g></g></svg>