<svg xmlns="http://www.w3.org/2000/svg" xmlns:xlink="http://www.w3.org/1999/xlink" width="500" zoomAndPan="magnify" viewBox="0 0 375 374.999991" height="500" preserveAspectRatio="xMidYMid meet" version="1.2"><defs><clipPath id="1c2b415906"><path d="M 93.757812 92.972656 L 281.246094 92.972656 L 281.246094 244.472656 L 93.757812 244.472656 Z M 93.757812 92.972656 "/></clipPath></defs><g id="70fd60e5a6"><g clip-rule="nonzero" clip-path="url(#1c2b415906)"><path style=" stroke:none;fill-rule:evenodd;fill:#000000;fill-opacity:1;" d="M 112.265625 242.648438 C 100.632812 227.03125 93.746094 207.675781 93.746094 186.726562 C 93.746094 134.984375 135.753906 92.972656 187.496094 92.972656 C 239.238281 92.972656 281.246094 134.984375 281.246094 186.726562 C 281.246094 207.675781 274.359375 227.03125 262.726562 242.648438 L 280.117188 242.648438 C 280.742188 242.648438 281.246094 243.152344 281.246094 243.773438 C 281.246094 244.398438 280.742188 244.902344 280.117188 244.902344 L 260.992188 244.902344 C 243.816406 266.566406 217.265625 280.476562 187.496094 280.476562 C 157.726562 280.476562 131.175781 266.566406 114 244.902344 L 94.875 244.902344 C 94.25 244.902344 93.746094 244.398438 93.746094 243.773438 C 93.746094 243.152344 94.25 242.648438 94.875 242.648438 Z M 259.894531 242.648438 C 271.867188 227.179688 278.992188 207.777344 278.992188 186.726562 C 278.992188 139.777344 243.554688 101.042969 197.996094 95.828125 L 197.996094 118.777344 L 207.632812 127.695312 C 207.972656 128.011719 208.085938 128.503906 207.914062 128.9375 C 207.746094 129.367188 207.328125 129.652344 206.867188 129.652344 L 186.871094 129.652344 C 186.40625 129.652344 185.992188 129.367188 185.820312 128.9375 C 185.652344 128.503906 185.765625 128.011719 186.105469 127.695312 L 195.742188 118.777344 L 195.742188 95.597656 C 193.023438 95.355469 190.273438 95.230469 187.496094 95.230469 C 183.550781 95.230469 179.664062 95.480469 175.847656 95.964844 C 175.890625 107.226562 175.886719 118.519531 175.847656 129.832031 C 177.476562 130.070312 178.996094 130.832031 180.175781 132.007812 C 181.621094 133.457031 182.4375 135.417969 182.4375 137.464844 L 182.4375 148.367188 C 182.4375 148.988281 181.929688 149.492188 181.308594 149.492188 L 168.125 149.492188 C 167.503906 149.492188 167 148.988281 167 148.367188 L 167 137.464844 C 167 135.417969 167.8125 133.457031 169.261719 132.007812 C 170.441406 130.828125 171.960938 130.070312 173.59375 129.828125 C 173.628906 118.625 173.632812 107.4375 173.59375 96.28125 C 162.21875 98.019531 151.527344 101.855469 141.933594 107.378906 L 141.933594 242.648438 L 153.535156 242.648438 L 155.945312 235.167969 L 150.894531 235.167969 C 150.273438 235.167969 149.765625 234.664062 149.765625 234.039062 L 149.765625 201.875 C 149.765625 201.25 150.273438 200.746094 150.894531 200.746094 L 158.042969 200.746094 L 156.527344 187.476562 C 156.492188 187.15625 156.59375 186.835938 156.808594 186.597656 C 157.019531 186.355469 157.324219 186.21875 157.648438 186.21875 L 159.730469 186.21875 C 158.605469 185.417969 157.707031 184.480469 157.042969 183.402344 C 155.628906 181.109375 155.257812 178.148438 156.238281 174.390625 C 156.394531 173.796875 156.996094 173.4375 157.59375 173.578125 C 158.835938 173.875 159.933594 174.253906 160.894531 174.707031 C 161.515625 173.410156 162.457031 172.109375 163.746094 170.800781 C 164.175781 170.363281 164.878906 170.351562 165.324219 170.773438 C 166.730469 172.105469 167.75 173.4375 168.429688 174.753906 C 169.414062 174.28125 170.542969 173.882812 171.824219 173.578125 C 172.421875 173.4375 173.023438 173.796875 173.175781 174.390625 C 174.160156 178.148438 173.785156 181.109375 172.375 183.402344 C 171.714844 184.476562 170.820312 185.40625 169.707031 186.203125 L 171.445312 186.203125 C 171.773438 186.203125 172.085938 186.34375 172.300781 186.589844 C 172.515625 186.839844 172.609375 187.167969 172.5625 187.492188 L 170.636719 200.746094 L 201.929688 200.746094 C 202.554688 200.746094 203.058594 201.25 203.058594 201.875 L 203.058594 234.039062 C 203.058594 234.664062 202.554688 235.167969 201.929688 235.167969 L 196.878906 235.167969 L 199.289062 242.648438 L 210.667969 242.648438 L 216.398438 224.867188 L 211.488281 224.867188 C 210.867188 224.867188 210.359375 224.363281 210.359375 223.742188 C 210.359375 223.117188 210.867188 222.613281 211.488281 222.613281 L 217.921875 222.613281 C 217.9375 222.613281 217.953125 222.613281 217.96875 222.613281 L 232.566406 222.613281 C 232.578125 222.613281 232.59375 222.613281 232.609375 222.613281 L 237.917969 222.613281 L 237.917969 198 C 237.917969 197.378906 238.421875 196.875 239.042969 196.875 C 239.667969 196.875 240.171875 197.378906 240.171875 198 L 240.171875 223.742188 C 240.171875 224.363281 239.667969 224.867188 239.042969 224.867188 L 234.136719 224.867188 L 239.867188 242.648438 L 251.429688 242.648438 L 251.429688 186.101562 L 242.363281 186.109375 C 242.027344 186.109375 241.707031 185.960938 241.492188 185.703125 C 241.277344 185.441406 241.191406 185.101562 241.253906 184.769531 L 244.371094 168.433594 C 244.472656 167.902344 244.9375 167.519531 245.480469 167.519531 L 260.304688 167.519531 C 260.863281 167.519531 261.335938 167.925781 261.421875 168.480469 L 263.867188 184.796875 C 263.917969 185.121094 263.820312 185.449219 263.605469 185.699219 C 263.394531 185.945312 263.082031 186.089844 262.753906 186.089844 L 253.683594 186.097656 L 253.683594 242.648438 Z M 221.015625 152.230469 L 221.015625 177.394531 C 221.015625 178.019531 220.507812 178.523438 219.886719 178.523438 L 199.496094 178.523438 C 198.875 178.523438 198.367188 178.019531 198.367188 177.394531 L 198.367188 152.230469 C 198.367188 151.605469 198.875 151.101562 199.496094 151.101562 L 219.886719 151.101562 C 220.507812 151.101562 221.015625 151.605469 221.015625 152.230469 Z M 218.757812 153.355469 L 200.625 153.355469 L 200.625 176.269531 L 218.757812 176.269531 Z M 215.394531 157.570312 L 215.394531 172.050781 C 215.394531 172.675781 214.890625 173.179688 214.265625 173.179688 L 205.117188 173.179688 C 204.492188 173.179688 203.988281 172.675781 203.988281 172.050781 L 203.988281 157.570312 C 203.988281 156.949219 204.492188 156.445312 205.117188 156.445312 L 214.265625 156.445312 C 214.890625 156.445312 215.394531 156.949219 215.394531 157.570312 Z M 213.140625 158.699219 L 206.242188 158.699219 L 206.242188 170.925781 L 213.140625 170.925781 Z M 124.367188 120.519531 C 122.488281 122.3125 120.6875 124.183594 118.964844 126.128906 L 118.964844 242.648438 L 124.367188 242.648438 Z M 116.710938 128.773438 C 114.796875 131.113281 112.992188 133.546875 111.3125 136.066406 L 111.3125 237.382812 C 112.511719 239.183594 113.773438 240.941406 115.097656 242.648438 L 116.710938 242.648438 Z M 139.675781 108.722656 C 137.832031 109.855469 136.03125 111.054688 134.277344 112.3125 L 134.277344 242.648438 L 139.675781 242.648438 Z M 132.023438 113.980469 C 130.164062 115.398438 128.363281 116.886719 126.621094 118.441406 L 126.621094 242.648438 L 132.023438 242.648438 Z M 109.054688 139.625 C 107.042969 142.96875 105.238281 146.453125 103.65625 150.054688 L 103.65625 223.394531 C 105.238281 226.996094 107.042969 230.480469 109.054688 233.824219 Z M 101.402344 155.707031 C 97.90625 165.394531 96 175.839844 96 186.726562 C 96 197.613281 97.90625 208.054688 101.402344 217.742188 Z M 116.898438 244.902344 C 133.6875 265.246094 159.085938 278.21875 187.496094 278.21875 C 215.90625 278.21875 241.304688 265.246094 258.09375 244.902344 L 239.066406 244.902344 C 239.050781 244.902344 239.035156 244.902344 239.023438 244.902344 L 211.511719 244.902344 C 211.496094 244.902344 211.480469 244.902344 211.464844 244.902344 L 198.492188 244.902344 C 198.476562 244.902344 198.460938 244.902344 198.445312 244.902344 L 154.378906 244.902344 C 154.363281 244.902344 154.347656 244.902344 154.332031 244.902344 Z M 174.714844 132.003906 C 173.265625 132.003906 171.878906 132.578125 170.855469 133.601562 C 169.828125 134.628906 169.253906 136.015625 169.253906 137.464844 L 169.253906 147.238281 C 169.253906 147.238281 180.179688 147.238281 180.179688 147.238281 L 180.179688 137.464844 C 180.179688 136.015625 179.605469 134.628906 178.582031 133.601562 C 177.558594 132.578125 176.167969 132.003906 174.71875 132.003906 Z M 160.3125 200.730469 L 168.363281 200.730469 L 170.144531 188.457031 L 158.910156 188.472656 Z M 203.988281 127.398438 L 196.867188 120.804688 L 189.75 127.398438 Z M 166.496094 175.917969 C 166.058594 175.027344 165.421875 174.128906 164.578125 173.222656 C 163.8125 174.109375 163.238281 174.988281 162.839844 175.859375 C 163.585938 176.410156 164.203125 177.023438 164.707031 177.695312 C 165.195312 177.046875 165.789062 176.453125 166.496094 175.917969 Z M 166.976562 185.230469 C 168.503906 184.453125 169.6875 183.46875 170.453125 182.222656 C 171.449219 180.609375 171.722656 178.578125 171.246094 176.070312 C 170.503906 176.300781 169.835938 176.5625 169.234375 176.867188 C 169.429688 177.640625 169.507812 178.410156 169.484375 179.171875 C 169.410156 181.242188 168.550781 183.277344 166.976562 185.230469 Z M 158.3125 235.167969 L 155.902344 242.648438 L 196.921875 242.648438 L 194.511719 235.167969 Z M 252.617188 183.84375 L 261.441406 183.835938 L 259.332031 169.773438 L 246.410156 169.773438 C 246.410156 169.773438 243.726562 183.855469 243.726562 183.855469 L 252.496094 183.84375 C 252.515625 183.84375 252.535156 183.84375 252.558594 183.84375 C 252.578125 183.84375 252.597656 183.84375 252.617188 183.84375 Z M 163.492188 180.003906 C 163.460938 179.945312 163.433594 179.886719 163.402344 179.828125 C 163.097656 179.257812 162.699219 178.734375 162.203125 178.261719 C 162.1875 178.488281 162.179688 178.71875 162.1875 178.945312 C 162.21875 180.023438 162.515625 181.09375 163.042969 182.152344 C 163.113281 181.398438 163.261719 180.679688 163.492188 180.003906 Z M 166.371094 182.113281 C 166.894531 181.125 167.195312 180.121094 167.230469 179.09375 C 167.238281 178.820312 167.230469 178.546875 167.199219 178.273438 C 166.710938 178.742188 166.316406 179.261719 166.015625 179.828125 C 165.984375 179.886719 165.953125 179.945312 165.925781 180.003906 C 166.152344 180.667969 166.300781 181.371094 166.371094 182.113281 Z M 160.140625 176.847656 C 159.550781 176.550781 158.894531 176.292969 158.171875 176.070312 C 157.695312 178.578125 157.96875 180.609375 158.964844 182.222656 C 159.691406 183.410156 160.796875 184.355469 162.21875 185.113281 C 160.773438 183.097656 159.992188 181.054688 159.933594 179.007812 C 159.914062 178.292969 159.980469 177.570312 160.140625 176.847656 Z M 218.765625 224.867188 L 213.035156 242.648438 L 237.496094 242.648438 L 231.765625 224.867188 Z M 152.023438 219.085938 L 152.023438 232.910156 L 195.308594 232.910156 C 195.324219 232.910156 195.339844 232.910156 195.351562 232.910156 L 200.800781 232.910156 L 200.800781 219.085938 Z M 176.949219 224.859375 C 177.578125 224.859375 178.089844 225.367188 178.089844 226 C 178.089844 226.628906 177.578125 227.136719 176.949219 227.136719 L 175.875 227.136719 C 175.246094 227.136719 174.734375 226.628906 174.734375 226 C 174.734375 225.367188 175.246094 224.859375 175.875 224.859375 Z M 200.800781 216.828125 L 200.800781 203 L 152.023438 203 L 152.023438 216.828125 Z M 176.949219 208.777344 C 177.578125 208.777344 178.089844 209.285156 178.089844 209.914062 C 178.089844 210.546875 177.578125 211.054688 176.949219 211.054688 L 175.875 211.054688 C 175.246094 211.054688 174.734375 210.546875 174.734375 209.914062 C 174.734375 209.285156 175.246094 208.777344 175.875 208.777344 Z M 176.949219 208.777344 "/></g><g style="fill:#000000;fill-opacity:1;"><g transform="translate(101.793228, 265.343932)"><path style="stroke:none" d="M 10.0625 -5.359375 C 10.0625 -4.554688 9.972656 -3.8125 9.796875 -3.125 C 9.628906 -2.4375 9.332031 -1.832031 8.90625 -1.3125 C 8.488281 -0.789062 7.921875 -0.378906 7.203125 -0.078125 C 6.492188 0.210938 5.601562 0.359375 4.53125 0.359375 C 3.988281 0.359375 3.488281 0.3125 3.03125 0.21875 C 2.582031 0.132812 2.171875 0.0234375 1.796875 -0.109375 C 1.429688 -0.242188 1.113281 -0.382812 0.84375 -0.53125 C 0.570312 -0.6875 0.351562 -0.835938 0.1875 -0.984375 L 1.109375 -2.828125 C 1.441406 -2.585938 1.875 -2.335938 2.40625 -2.078125 C 2.945312 -1.816406 3.617188 -1.6875 4.421875 -1.6875 C 5.566406 -1.6875 6.40625 -1.976562 6.9375 -2.5625 C 7.46875 -3.144531 7.734375 -4.144531 7.734375 -5.5625 L 7.734375 -16.625 L 10.0625 -16.625 Z M 10.0625 -5.359375 "/></g></g><g style="fill:#000000;fill-opacity:1;"><g transform="translate(113.79325, 265.343932)"><path style="stroke:none" d="M 9.53125 -2.296875 C 9.363281 -2.679688 9.148438 -3.171875 8.890625 -3.765625 C 8.628906 -4.359375 8.34375 -5 8.03125 -5.6875 C 7.726562 -6.375 7.40625 -7.082031 7.0625 -7.8125 C 6.71875 -8.539062 6.394531 -9.226562 6.09375 -9.875 C 5.789062 -10.519531 5.503906 -11.097656 5.234375 -11.609375 C 4.972656 -12.128906 4.765625 -12.523438 4.609375 -12.796875 C 4.429688 -10.898438 4.285156 -8.851562 4.171875 -6.65625 C 4.066406 -4.457031 3.972656 -2.238281 3.890625 0 L 1.609375 0 C 1.671875 -1.4375 1.738281 -2.882812 1.8125 -4.34375 C 1.894531 -5.8125 1.988281 -7.253906 2.09375 -8.671875 C 2.195312 -10.085938 2.304688 -11.46875 2.421875 -12.8125 C 2.546875 -14.15625 2.679688 -15.425781 2.828125 -16.625 L 4.875 -16.625 C 5.300781 -15.925781 5.765625 -15.097656 6.265625 -14.140625 C 6.765625 -13.179688 7.257812 -12.175781 7.75 -11.125 C 8.25 -10.070312 8.726562 -9.019531 9.1875 -7.96875 C 9.65625 -6.925781 10.082031 -5.972656 10.46875 -5.109375 C 10.851562 -5.972656 11.273438 -6.925781 11.734375 -7.96875 C 12.203125 -9.019531 12.679688 -10.070312 13.171875 -11.125 C 13.671875 -12.175781 14.164062 -13.179688 14.65625 -14.140625 C 15.15625 -15.097656 15.625 -15.925781 16.0625 -16.625 L 18.09375 -16.625 C 18.632812 -11.269531 19.039062 -5.726562 19.3125 0 L 17.046875 0 C 16.960938 -2.238281 16.863281 -4.457031 16.75 -6.65625 C 16.632812 -8.851562 16.488281 -10.898438 16.3125 -12.796875 C 16.15625 -12.523438 15.941406 -12.128906 15.671875 -11.609375 C 15.410156 -11.097656 15.128906 -10.519531 14.828125 -9.875 C 14.523438 -9.226562 14.203125 -8.539062 13.859375 -7.8125 C 13.515625 -7.082031 13.191406 -6.375 12.890625 -5.6875 C 12.585938 -5 12.300781 -4.359375 12.03125 -3.765625 C 11.769531 -3.171875 11.5625 -2.679688 11.40625 -2.296875 Z M 9.53125 -2.296875 "/></g></g><g style="fill:#000000;fill-opacity:1;"><g transform="translate(134.69729, 265.343932)"><path style="stroke:none" d=""/></g></g><g style="fill:#000000;fill-opacity:1;"><g transform="translate(140.2413, 265.343932)"><path style="stroke:none" d="M 9.21875 0.359375 C 8.050781 0.359375 6.984375 0.164062 6.015625 -0.21875 C 5.054688 -0.601562 4.234375 -1.160156 3.546875 -1.890625 C 2.859375 -2.628906 2.328125 -3.535156 1.953125 -4.609375 C 1.578125 -5.691406 1.390625 -6.929688 1.390625 -8.328125 C 1.390625 -9.722656 1.597656 -10.957031 2.015625 -12.03125 C 2.441406 -13.113281 3.015625 -14.019531 3.734375 -14.75 C 4.460938 -15.488281 5.304688 -16.050781 6.265625 -16.4375 C 7.222656 -16.820312 8.25 -17.015625 9.34375 -17.015625 C 10.03125 -17.015625 10.648438 -16.96875 11.203125 -16.875 C 11.753906 -16.78125 12.234375 -16.664062 12.640625 -16.53125 C 13.046875 -16.40625 13.375 -16.273438 13.625 -16.140625 C 13.882812 -16.015625 14.0625 -15.921875 14.15625 -15.859375 L 13.484375 -13.9375 C 13.335938 -14.039062 13.128906 -14.144531 12.859375 -14.25 C 12.585938 -14.363281 12.28125 -14.476562 11.9375 -14.59375 C 11.59375 -14.707031 11.21875 -14.796875 10.8125 -14.859375 C 10.40625 -14.929688 9.992188 -14.96875 9.578125 -14.96875 C 8.691406 -14.96875 7.894531 -14.816406 7.1875 -14.515625 C 6.488281 -14.210938 5.890625 -13.773438 5.390625 -13.203125 C 4.898438 -12.628906 4.519531 -11.925781 4.25 -11.09375 C 3.988281 -10.269531 3.859375 -9.347656 3.859375 -8.328125 C 3.859375 -7.335938 3.972656 -6.429688 4.203125 -5.609375 C 4.441406 -4.796875 4.789062 -4.097656 5.25 -3.515625 C 5.71875 -2.929688 6.300781 -2.476562 7 -2.15625 C 7.695312 -1.84375 8.507812 -1.6875 9.4375 -1.6875 C 10.507812 -1.6875 11.394531 -1.796875 12.09375 -2.015625 C 12.800781 -2.242188 13.332031 -2.441406 13.6875 -2.609375 L 14.28125 -0.703125 C 14.164062 -0.617188 13.960938 -0.515625 13.671875 -0.390625 C 13.390625 -0.273438 13.03125 -0.160156 12.59375 -0.046875 C 12.164062 0.0664062 11.660156 0.160156 11.078125 0.234375 C 10.503906 0.316406 9.882812 0.359375 9.21875 0.359375 Z M 9.21875 0.359375 "/></g></g><g style="fill:#000000;fill-opacity:1;"><g transform="translate(155.121331, 265.343932)"><path style="stroke:none" d="M 1.390625 -8.328125 C 1.390625 -9.753906 1.597656 -11.007812 2.015625 -12.09375 C 2.441406 -13.1875 3.019531 -14.09375 3.75 -14.8125 C 4.476562 -15.539062 5.328125 -16.085938 6.296875 -16.453125 C 7.265625 -16.828125 8.296875 -17.015625 9.390625 -17.015625 C 10.453125 -17.015625 11.457031 -16.828125 12.40625 -16.453125 C 13.363281 -16.085938 14.203125 -15.539062 14.921875 -14.8125 C 15.648438 -14.09375 16.222656 -13.1875 16.640625 -12.09375 C 17.066406 -11.007812 17.28125 -9.753906 17.28125 -8.328125 C 17.28125 -6.898438 17.066406 -5.640625 16.640625 -4.546875 C 16.222656 -3.460938 15.648438 -2.554688 14.921875 -1.828125 C 14.203125 -1.109375 13.363281 -0.5625 12.40625 -0.1875 C 11.457031 0.175781 10.453125 0.359375 9.390625 0.359375 C 8.296875 0.359375 7.265625 0.175781 6.296875 -0.1875 C 5.328125 -0.5625 4.476562 -1.109375 3.75 -1.828125 C 3.019531 -2.554688 2.441406 -3.460938 2.015625 -4.546875 C 1.597656 -5.640625 1.390625 -6.898438 1.390625 -8.328125 Z M 3.84375 -8.328125 C 3.84375 -7.316406 3.96875 -6.398438 4.21875 -5.578125 C 4.476562 -4.753906 4.84375 -4.050781 5.3125 -3.46875 C 5.789062 -2.894531 6.367188 -2.453125 7.046875 -2.140625 C 7.722656 -1.835938 8.488281 -1.6875 9.34375 -1.6875 C 10.1875 -1.6875 10.941406 -1.835938 11.609375 -2.140625 C 12.285156 -2.453125 12.859375 -2.894531 13.328125 -3.46875 C 13.804688 -4.050781 14.171875 -4.753906 14.421875 -5.578125 C 14.679688 -6.398438 14.8125 -7.316406 14.8125 -8.328125 C 14.8125 -9.335938 14.679688 -10.253906 14.421875 -11.078125 C 14.171875 -11.898438 13.804688 -12.597656 13.328125 -13.171875 C 12.859375 -13.753906 12.285156 -14.195312 11.609375 -14.5 C 10.941406 -14.8125 10.1875 -14.96875 9.34375 -14.96875 C 8.488281 -14.96875 7.722656 -14.8125 7.046875 -14.5 C 6.367188 -14.195312 5.789062 -13.753906 5.3125 -13.171875 C 4.84375 -12.597656 4.476562 -11.898438 4.21875 -11.078125 C 3.96875 -10.253906 3.84375 -9.335938 3.84375 -8.328125 Z M 3.84375 -8.328125 "/></g></g><g style="fill:#000000;fill-opacity:1;"><g transform="translate(173.793372, 265.343932)"><path style="stroke:none" d="M 9.53125 -2.296875 C 9.363281 -2.679688 9.148438 -3.171875 8.890625 -3.765625 C 8.628906 -4.359375 8.34375 -5 8.03125 -5.6875 C 7.726562 -6.375 7.40625 -7.082031 7.0625 -7.8125 C 6.71875 -8.539062 6.394531 -9.226562 6.09375 -9.875 C 5.789062 -10.519531 5.503906 -11.097656 5.234375 -11.609375 C 4.972656 -12.128906 4.765625 -12.523438 4.609375 -12.796875 C 4.429688 -10.898438 4.285156 -8.851562 4.171875 -6.65625 C 4.066406 -4.457031 3.972656 -2.238281 3.890625 0 L 1.609375 0 C 1.671875 -1.4375 1.738281 -2.882812 1.8125 -4.34375 C 1.894531 -5.8125 1.988281 -7.253906 2.09375 -8.671875 C 2.195312 -10.085938 2.304688 -11.46875 2.421875 -12.8125 C 2.546875 -14.15625 2.679688 -15.425781 2.828125 -16.625 L 4.875 -16.625 C 5.300781 -15.925781 5.765625 -15.097656 6.265625 -14.140625 C 6.765625 -13.179688 7.257812 -12.175781 7.75 -11.125 C 8.25 -10.070312 8.726562 -9.019531 9.1875 -7.96875 C 9.65625 -6.925781 10.082031 -5.972656 10.46875 -5.109375 C 10.851562 -5.972656 11.273438 -6.925781 11.734375 -7.96875 C 12.203125 -9.019531 12.679688 -10.070312 13.171875 -11.125 C 13.671875 -12.175781 14.164062 -13.179688 14.65625 -14.140625 C 15.15625 -15.097656 15.625 -15.925781 16.0625 -16.625 L 18.09375 -16.625 C 18.632812 -11.269531 19.039062 -5.726562 19.3125 0 L 17.046875 0 C 16.960938 -2.238281 16.863281 -4.457031 16.75 -6.65625 C 16.632812 -8.851562 16.488281 -10.898438 16.3125 -12.796875 C 16.15625 -12.523438 15.941406 -12.128906 15.671875 -11.609375 C 15.410156 -11.097656 15.128906 -10.519531 14.828125 -9.875 C 14.523438 -9.226562 14.203125 -8.539062 13.859375 -7.8125 C 13.515625 -7.082031 13.191406 -6.375 12.890625 -5.6875 C 12.585938 -5 12.300781 -4.359375 12.03125 -3.765625 C 11.769531 -3.171875 11.5625 -2.679688 11.40625 -2.296875 Z M 9.53125 -2.296875 "/></g></g><g style="fill:#000000;fill-opacity:1;"><g transform="translate(194.697412, 265.343932)"><path style="stroke:none" d="M 2.0625 0 L 2.0625 -16.625 L 12.21875 -16.625 L 12.21875 -14.640625 L 4.390625 -14.640625 L 4.390625 -9.703125 L 11.359375 -9.703125 L 11.359375 -7.75 L 4.390625 -7.75 L 4.390625 -1.984375 L 12.8125 -1.984375 L 12.8125 0 Z M 2.0625 0 "/></g></g><g style="fill:#000000;fill-opacity:1;"><g transform="translate(208.401437, 265.343932)"><path style="stroke:none" d="M 10.203125 -6.953125 C 10.453125 -6.640625 10.773438 -6.222656 11.171875 -5.703125 C 11.566406 -5.179688 11.972656 -4.601562 12.390625 -3.96875 C 12.804688 -3.34375 13.21875 -2.679688 13.625 -1.984375 C 14.03125 -1.296875 14.375 -0.632812 14.65625 0 L 12.125 0 C 11.800781 -0.601562 11.453125 -1.21875 11.078125 -1.84375 C 10.703125 -2.46875 10.320312 -3.0625 9.9375 -3.625 C 9.550781 -4.195312 9.171875 -4.726562 8.796875 -5.21875 C 8.421875 -5.71875 8.082031 -6.15625 7.78125 -6.53125 C 7.570312 -6.507812 7.359375 -6.5 7.140625 -6.5 C 6.921875 -6.5 6.703125 -6.5 6.484375 -6.5 L 4.390625 -6.5 L 4.390625 0 L 2.0625 0 L 2.0625 -16.390625 C 2.71875 -16.546875 3.445312 -16.648438 4.25 -16.703125 C 5.0625 -16.765625 5.804688 -16.796875 6.484375 -16.796875 C 8.816406 -16.796875 10.59375 -16.351562 11.8125 -15.46875 C 13.039062 -14.59375 13.65625 -13.285156 13.65625 -11.546875 C 13.65625 -10.441406 13.363281 -9.492188 12.78125 -8.703125 C 12.195312 -7.921875 11.335938 -7.335938 10.203125 -6.953125 Z M 6.671875 -14.765625 C 5.679688 -14.765625 4.921875 -14.738281 4.390625 -14.6875 L 4.390625 -8.421875 L 6.046875 -8.421875 C 6.847656 -8.421875 7.566406 -8.457031 8.203125 -8.53125 C 8.847656 -8.613281 9.390625 -8.769531 9.828125 -9 C 10.265625 -9.226562 10.601562 -9.546875 10.84375 -9.953125 C 11.082031 -10.359375 11.203125 -10.894531 11.203125 -11.5625 C 11.203125 -12.1875 11.082031 -12.707031 10.84375 -13.125 C 10.601562 -13.539062 10.28125 -13.867188 9.875 -14.109375 C 9.46875 -14.347656 8.988281 -14.515625 8.4375 -14.609375 C 7.882812 -14.710938 7.296875 -14.765625 6.671875 -14.765625 Z M 6.671875 -14.765625 "/></g></g><g style="fill:#000000;fill-opacity:1;"><g transform="translate(223.497463, 265.343932)"><path style="stroke:none" d="M 9.21875 0.359375 C 8.050781 0.359375 6.984375 0.164062 6.015625 -0.21875 C 5.054688 -0.601562 4.234375 -1.160156 3.546875 -1.890625 C 2.859375 -2.628906 2.328125 -3.535156 1.953125 -4.609375 C 1.578125 -5.691406 1.390625 -6.929688 1.390625 -8.328125 C 1.390625 -9.722656 1.597656 -10.957031 2.015625 -12.03125 C 2.441406 -13.113281 3.015625 -14.019531 3.734375 -14.75 C 4.460938 -15.488281 5.304688 -16.050781 6.265625 -16.4375 C 7.222656 -16.820312 8.25 -17.015625 9.34375 -17.015625 C 10.03125 -17.015625 10.648438 -16.96875 11.203125 -16.875 C 11.753906 -16.78125 12.234375 -16.664062 12.640625 -16.53125 C 13.046875 -16.40625 13.375 -16.273438 13.625 -16.140625 C 13.882812 -16.015625 14.0625 -15.921875 14.15625 -15.859375 L 13.484375 -13.9375 C 13.335938 -14.039062 13.128906 -14.144531 12.859375 -14.25 C 12.585938 -14.363281 12.28125 -14.476562 11.9375 -14.59375 C 11.59375 -14.707031 11.21875 -14.796875 10.8125 -14.859375 C 10.40625 -14.929688 9.992188 -14.96875 9.578125 -14.96875 C 8.691406 -14.96875 7.894531 -14.816406 7.1875 -14.515625 C 6.488281 -14.210938 5.890625 -13.773438 5.390625 -13.203125 C 4.898438 -12.628906 4.519531 -11.925781 4.25 -11.09375 C 3.988281 -10.269531 3.859375 -9.347656 3.859375 -8.328125 C 3.859375 -7.335938 3.972656 -6.429688 4.203125 -5.609375 C 4.441406 -4.796875 4.789062 -4.097656 5.25 -3.515625 C 5.71875 -2.929688 6.300781 -2.476562 7 -2.15625 C 7.695312 -1.84375 8.507812 -1.6875 9.4375 -1.6875 C 10.507812 -1.6875 11.394531 -1.796875 12.09375 -2.015625 C 12.800781 -2.242188 13.332031 -2.441406 13.6875 -2.609375 L 14.28125 -0.703125 C 14.164062 -0.617188 13.960938 -0.515625 13.671875 -0.390625 C 13.390625 -0.273438 13.03125 -0.160156 12.59375 -0.046875 C 12.164062 0.0664062 11.660156 0.160156 11.078125 0.234375 C 10.503906 0.316406 9.882812 0.359375 9.21875 0.359375 Z M 9.21875 0.359375 "/></g></g><g style="fill:#000000;fill-opacity:1;"><g transform="translate(238.377493, 265.343932)"><path style="stroke:none" d="M 2.0625 -16.625 L 4.390625 -16.625 L 4.390625 0 L 2.0625 0 Z M 2.0625 -16.625 "/></g></g><g style="fill:#000000;fill-opacity:1;"><g transform="translate(244.833505, 265.343932)"><path style="stroke:none" d="M 13.171875 0 C 12.898438 -0.71875 12.644531 -1.425781 12.40625 -2.125 C 12.164062 -2.820312 11.914062 -3.53125 11.65625 -4.25 L 4.125 -4.25 L 2.609375 0 L 0.1875 0 C 0.832031 -1.757812 1.429688 -3.382812 1.984375 -4.875 C 2.546875 -6.375 3.09375 -7.796875 3.625 -9.140625 C 4.164062 -10.484375 4.703125 -11.765625 5.234375 -12.984375 C 5.765625 -14.210938 6.316406 -15.425781 6.890625 -16.625 L 9.03125 -16.625 C 9.601562 -15.425781 10.148438 -14.210938 10.671875 -12.984375 C 11.203125 -11.765625 11.734375 -10.484375 12.265625 -9.140625 C 12.804688 -7.796875 13.359375 -6.375 13.921875 -4.875 C 14.484375 -3.382812 15.082031 -1.757812 15.71875 0 Z M 10.984375 -6.171875 C 10.472656 -7.554688 9.96875 -8.898438 9.46875 -10.203125 C 8.96875 -11.515625 8.441406 -12.769531 7.890625 -13.96875 C 7.335938 -12.769531 6.804688 -11.515625 6.296875 -10.203125 C 5.796875 -8.898438 5.296875 -7.554688 4.796875 -6.171875 Z M 10.984375 -6.171875 "/></g></g><g style="fill:#000000;fill-opacity:1;"><g transform="translate(260.745541, 265.343932)"><path style="stroke:none" d="M 12.078125 -2.015625 L 12.078125 0 L 2.0625 0 L 2.0625 -16.625 L 4.390625 -16.625 L 4.390625 -2.015625 Z M 12.078125 -2.015625 "/></g></g><g style="fill:#000000;fill-opacity:1;"><g transform="translate(112.50645, 278.725616)"><path style="stroke:none" d="M 6.59375 -8.3125 L 6.59375 -7.3125 L 3.96875 -7.3125 L 3.96875 0 L 2.8125 0 L 2.8125 -7.3125 L 0.1875 -7.3125 L 0.1875 -8.3125 Z M 6.59375 -8.3125 "/></g></g><g style="fill:#000000;fill-opacity:1;"><g transform="translate(120.59447, 278.725616)"><path style="stroke:none" d="M 0.703125 -4.15625 C 0.703125 -4.875 0.804688 -5.503906 1.015625 -6.046875 C 1.222656 -6.585938 1.507812 -7.039062 1.875 -7.40625 C 2.238281 -7.769531 2.660156 -8.046875 3.140625 -8.234375 C 3.628906 -8.421875 4.144531 -8.515625 4.6875 -8.515625 C 5.226562 -8.515625 5.734375 -8.421875 6.203125 -8.234375 C 6.679688 -8.046875 7.097656 -7.769531 7.453125 -7.40625 C 7.816406 -7.039062 8.101562 -6.585938 8.3125 -6.046875 C 8.53125 -5.503906 8.640625 -4.875 8.640625 -4.15625 C 8.640625 -3.445312 8.53125 -2.820312 8.3125 -2.28125 C 8.101562 -1.738281 7.816406 -1.285156 7.453125 -0.921875 C 7.097656 -0.554688 6.679688 -0.28125 6.203125 -0.09375 C 5.734375 0.09375 5.226562 0.1875 4.6875 0.1875 C 4.144531 0.1875 3.628906 0.09375 3.140625 -0.09375 C 2.660156 -0.28125 2.238281 -0.554688 1.875 -0.921875 C 1.507812 -1.285156 1.222656 -1.738281 1.015625 -2.28125 C 0.804688 -2.820312 0.703125 -3.445312 0.703125 -4.15625 Z M 1.921875 -4.15625 C 1.921875 -3.65625 1.984375 -3.195312 2.109375 -2.78125 C 2.234375 -2.375 2.414062 -2.023438 2.65625 -1.734375 C 2.894531 -1.453125 3.179688 -1.234375 3.515625 -1.078125 C 3.859375 -0.921875 4.242188 -0.84375 4.671875 -0.84375 C 5.085938 -0.84375 5.460938 -0.921875 5.796875 -1.078125 C 6.140625 -1.234375 6.425781 -1.453125 6.65625 -1.734375 C 6.894531 -2.023438 7.078125 -2.375 7.203125 -2.78125 C 7.335938 -3.195312 7.40625 -3.65625 7.40625 -4.15625 C 7.40625 -4.664062 7.335938 -5.125 7.203125 -5.53125 C 7.078125 -5.945312 6.894531 -6.296875 6.65625 -6.578125 C 6.425781 -6.867188 6.140625 -7.09375 5.796875 -7.25 C 5.460938 -7.40625 5.085938 -7.484375 4.671875 -7.484375 C 4.242188 -7.484375 3.859375 -7.40625 3.515625 -7.25 C 3.179688 -7.09375 2.894531 -6.867188 2.65625 -6.578125 C 2.414062 -6.296875 2.234375 -5.945312 2.109375 -5.53125 C 1.984375 -5.125 1.921875 -4.664062 1.921875 -4.15625 Z M 1.921875 -4.15625 "/></g></g><g style="fill:#000000;fill-opacity:1;"><g transform="translate(131.238493, 278.725616)"><path style="stroke:none" d="M 7.859375 -4.15625 C 7.859375 -3.4375 7.742188 -2.8125 7.515625 -2.28125 C 7.296875 -1.75 6.984375 -1.304688 6.578125 -0.953125 C 6.171875 -0.609375 5.679688 -0.347656 5.109375 -0.171875 C 4.546875 -0.00390625 3.921875 0.078125 3.234375 0.078125 C 2.898438 0.078125 2.53125 0.0625 2.125 0.03125 C 1.726562 0 1.363281 -0.0507812 1.03125 -0.125 L 1.03125 -8.203125 C 1.363281 -8.273438 1.726562 -8.328125 2.125 -8.359375 C 2.53125 -8.390625 2.898438 -8.40625 3.234375 -8.40625 C 3.921875 -8.40625 4.546875 -8.316406 5.109375 -8.140625 C 5.679688 -7.972656 6.171875 -7.710938 6.578125 -7.359375 C 6.984375 -7.015625 7.296875 -6.578125 7.515625 -6.046875 C 7.742188 -5.515625 7.859375 -4.882812 7.859375 -4.15625 Z M 3.34375 -0.953125 C 4.4375 -0.953125 5.253906 -1.234375 5.796875 -1.796875 C 6.347656 -2.359375 6.625 -3.144531 6.625 -4.15625 C 6.625 -5.175781 6.347656 -5.96875 5.796875 -6.53125 C 5.253906 -7.09375 4.4375 -7.375 3.34375 -7.375 C 3.007812 -7.375 2.75 -7.367188 2.5625 -7.359375 C 2.382812 -7.359375 2.265625 -7.351562 2.203125 -7.34375 L 2.203125 -0.984375 C 2.265625 -0.972656 2.382812 -0.960938 2.5625 -0.953125 C 2.75 -0.953125 3.007812 -0.953125 3.34375 -0.953125 Z M 3.34375 -0.953125 "/></g></g><g style="fill:#000000;fill-opacity:1;"><g transform="translate(141.10251, 278.725616)"><path style="stroke:none" d="M 0.703125 -4.15625 C 0.703125 -4.875 0.804688 -5.503906 1.015625 -6.046875 C 1.222656 -6.585938 1.507812 -7.039062 1.875 -7.40625 C 2.238281 -7.769531 2.660156 -8.046875 3.140625 -8.234375 C 3.628906 -8.421875 4.144531 -8.515625 4.6875 -8.515625 C 5.226562 -8.515625 5.734375 -8.421875 6.203125 -8.234375 C 6.679688 -8.046875 7.097656 -7.769531 7.453125 -7.40625 C 7.816406 -7.039062 8.101562 -6.585938 8.3125 -6.046875 C 8.53125 -5.503906 8.640625 -4.875 8.640625 -4.15625 C 8.640625 -3.445312 8.53125 -2.820312 8.3125 -2.28125 C 8.101562 -1.738281 7.816406 -1.285156 7.453125 -0.921875 C 7.097656 -0.554688 6.679688 -0.28125 6.203125 -0.09375 C 5.734375 0.09375 5.226562 0.1875 4.6875 0.1875 C 4.144531 0.1875 3.628906 0.09375 3.140625 -0.09375 C 2.660156 -0.28125 2.238281 -0.554688 1.875 -0.921875 C 1.507812 -1.285156 1.222656 -1.738281 1.015625 -2.28125 C 0.804688 -2.820312 0.703125 -3.445312 0.703125 -4.15625 Z M 1.921875 -4.15625 C 1.921875 -3.65625 1.984375 -3.195312 2.109375 -2.78125 C 2.234375 -2.375 2.414062 -2.023438 2.65625 -1.734375 C 2.894531 -1.453125 3.179688 -1.234375 3.515625 -1.078125 C 3.859375 -0.921875 4.242188 -0.84375 4.671875 -0.84375 C 5.085938 -0.84375 5.460938 -0.921875 5.796875 -1.078125 C 6.140625 -1.234375 6.425781 -1.453125 6.65625 -1.734375 C 6.894531 -2.023438 7.078125 -2.375 7.203125 -2.78125 C 7.335938 -3.195312 7.40625 -3.65625 7.40625 -4.15625 C 7.40625 -4.664062 7.335938 -5.125 7.203125 -5.53125 C 7.078125 -5.945312 6.894531 -6.296875 6.65625 -6.578125 C 6.425781 -6.867188 6.140625 -7.09375 5.796875 -7.25 C 5.460938 -7.40625 5.085938 -7.484375 4.671875 -7.484375 C 4.242188 -7.484375 3.859375 -7.40625 3.515625 -7.25 C 3.179688 -7.09375 2.894531 -6.867188 2.65625 -6.578125 C 2.414062 -6.296875 2.234375 -5.945312 2.109375 -5.53125 C 1.984375 -5.125 1.921875 -4.664062 1.921875 -4.15625 Z M 1.921875 -4.15625 "/></g></g><g style="fill:#000000;fill-opacity:1;"><g transform="translate(151.746533, 278.725616)"><path style="stroke:none" d=""/></g></g><g style="fill:#000000;fill-opacity:1;"><g transform="translate(155.826546, 278.725616)"><path style="stroke:none" d="M 3.234375 -8.40625 C 4.398438 -8.40625 5.296875 -8.179688 5.921875 -7.734375 C 6.554688 -7.285156 6.875 -6.625 6.875 -5.75 C 6.875 -5.269531 6.785156 -4.859375 6.609375 -4.515625 C 6.441406 -4.179688 6.195312 -3.90625 5.875 -3.6875 C 5.550781 -3.476562 5.15625 -3.320312 4.6875 -3.21875 C 4.226562 -3.125 3.707031 -3.078125 3.125 -3.078125 L 2.203125 -3.078125 L 2.203125 0 L 1.03125 0 L 1.03125 -8.203125 C 1.363281 -8.273438 1.726562 -8.328125 2.125 -8.359375 C 2.53125 -8.390625 2.898438 -8.40625 3.234375 -8.40625 Z M 3.34375 -7.375 C 2.84375 -7.375 2.460938 -7.363281 2.203125 -7.34375 L 2.203125 -4.078125 L 3.078125 -4.078125 C 3.472656 -4.078125 3.828125 -4.101562 4.140625 -4.15625 C 4.460938 -4.207031 4.734375 -4.296875 4.953125 -4.421875 C 5.179688 -4.546875 5.351562 -4.710938 5.46875 -4.921875 C 5.59375 -5.140625 5.65625 -5.421875 5.65625 -5.765625 C 5.65625 -6.078125 5.59375 -6.335938 5.46875 -6.546875 C 5.34375 -6.753906 5.171875 -6.921875 4.953125 -7.046875 C 4.742188 -7.171875 4.5 -7.253906 4.21875 -7.296875 C 3.9375 -7.347656 3.644531 -7.375 3.34375 -7.375 Z M 3.34375 -7.375 "/></g></g><g style="fill:#000000;fill-opacity:1;"><g transform="translate(164.430569, 278.725616)"><path style="stroke:none" d="M 6.59375 0 C 6.457031 -0.363281 6.328125 -0.71875 6.203125 -1.0625 C 6.085938 -1.40625 5.960938 -1.757812 5.828125 -2.125 L 2.0625 -2.125 L 1.3125 0 L 0.09375 0 C 0.414062 -0.875 0.71875 -1.6875 1 -2.4375 C 1.28125 -3.1875 1.550781 -3.894531 1.8125 -4.5625 C 2.082031 -5.238281 2.347656 -5.882812 2.609375 -6.5 C 2.878906 -7.113281 3.15625 -7.71875 3.4375 -8.3125 L 4.515625 -8.3125 C 4.796875 -7.71875 5.066406 -7.113281 5.328125 -6.5 C 5.597656 -5.882812 5.867188 -5.238281 6.140625 -4.5625 C 6.410156 -3.894531 6.679688 -3.1875 6.953125 -2.4375 C 7.234375 -1.6875 7.535156 -0.875 7.859375 0 Z M 5.5 -3.078125 C 5.238281 -3.773438 4.984375 -4.445312 4.734375 -5.09375 C 4.484375 -5.75 4.222656 -6.378906 3.953125 -6.984375 C 3.671875 -6.378906 3.398438 -5.75 3.140625 -5.09375 C 2.890625 -4.445312 2.644531 -3.773438 2.40625 -3.078125 Z M 5.5 -3.078125 "/></g></g><g style="fill:#000000;fill-opacity:1;"><g transform="translate(173.694583, 278.725616)"><path style="stroke:none" d="M 5.09375 -3.484375 C 5.226562 -3.316406 5.390625 -3.101562 5.578125 -2.84375 C 5.773438 -2.582031 5.976562 -2.296875 6.1875 -1.984375 C 6.394531 -1.671875 6.597656 -1.34375 6.796875 -1 C 7.003906 -0.65625 7.179688 -0.320312 7.328125 0 L 6.0625 0 C 5.894531 -0.300781 5.71875 -0.609375 5.53125 -0.921875 C 5.34375 -1.234375 5.15625 -1.53125 4.96875 -1.8125 C 4.78125 -2.101562 4.585938 -2.367188 4.390625 -2.609375 C 4.203125 -2.859375 4.035156 -3.078125 3.890625 -3.265625 C 3.785156 -3.253906 3.675781 -3.25 3.5625 -3.25 C 3.457031 -3.25 3.347656 -3.25 3.234375 -3.25 L 2.203125 -3.25 L 2.203125 0 L 1.03125 0 L 1.03125 -8.203125 C 1.363281 -8.273438 1.726562 -8.328125 2.125 -8.359375 C 2.53125 -8.390625 2.898438 -8.40625 3.234375 -8.40625 C 4.398438 -8.40625 5.289062 -8.179688 5.90625 -7.734375 C 6.519531 -7.296875 6.828125 -6.640625 6.828125 -5.765625 C 6.828125 -5.210938 6.679688 -4.738281 6.390625 -4.34375 C 6.097656 -3.957031 5.664062 -3.671875 5.09375 -3.484375 Z M 3.34375 -7.375 C 2.84375 -7.375 2.460938 -7.363281 2.203125 -7.34375 L 2.203125 -4.21875 L 3.03125 -4.21875 C 3.425781 -4.21875 3.78125 -4.234375 4.09375 -4.265625 C 4.414062 -4.304688 4.6875 -4.382812 4.90625 -4.5 C 5.132812 -4.613281 5.304688 -4.769531 5.421875 -4.96875 C 5.546875 -5.175781 5.609375 -5.445312 5.609375 -5.78125 C 5.609375 -6.09375 5.546875 -6.351562 5.421875 -6.5625 C 5.304688 -6.769531 5.144531 -6.929688 4.9375 -7.046875 C 4.726562 -7.171875 4.484375 -7.253906 4.203125 -7.296875 C 3.929688 -7.347656 3.644531 -7.375 3.34375 -7.375 Z M 3.34375 -7.375 "/></g></g><g style="fill:#000000;fill-opacity:1;"><g transform="translate(182.550605, 278.725616)"><path style="stroke:none" d="M 6.59375 0 C 6.457031 -0.363281 6.328125 -0.71875 6.203125 -1.0625 C 6.085938 -1.40625 5.960938 -1.757812 5.828125 -2.125 L 2.0625 -2.125 L 1.3125 0 L 0.09375 0 C 0.414062 -0.875 0.71875 -1.6875 1 -2.4375 C 1.28125 -3.1875 1.550781 -3.894531 1.8125 -4.5625 C 2.082031 -5.238281 2.347656 -5.882812 2.609375 -6.5 C 2.878906 -7.113281 3.15625 -7.71875 3.4375 -8.3125 L 4.515625 -8.3125 C 4.796875 -7.71875 5.066406 -7.113281 5.328125 -6.5 C 5.597656 -5.882812 5.867188 -5.238281 6.140625 -4.5625 C 6.410156 -3.894531 6.679688 -3.1875 6.953125 -2.4375 C 7.234375 -1.6875 7.535156 -0.875 7.859375 0 Z M 5.5 -3.078125 C 5.238281 -3.773438 4.984375 -4.445312 4.734375 -5.09375 C 4.484375 -5.75 4.222656 -6.378906 3.953125 -6.984375 C 3.671875 -6.378906 3.398438 -5.75 3.140625 -5.09375 C 2.890625 -4.445312 2.644531 -3.773438 2.40625 -3.078125 Z M 5.5 -3.078125 "/></g></g><g style="fill:#000000;fill-opacity:1;"><g transform="translate(191.814619, 278.725616)"><path style="stroke:none" d=""/></g></g><g style="fill:#000000;fill-opacity:1;"><g transform="translate(195.894632, 278.725616)"><path style="stroke:none" d="M 1.03125 0 L 1.03125 -8.3125 L 6.109375 -8.3125 L 6.109375 -7.3125 L 2.203125 -7.3125 L 2.203125 -4.84375 L 5.671875 -4.84375 L 5.671875 -3.875 L 2.203125 -3.875 L 2.203125 -1 L 6.40625 -1 L 6.40625 0 Z M 1.03125 0 "/></g></g><g style="fill:#000000;fill-opacity:1;"><g transform="translate(204.054647, 278.725616)"><path style="stroke:none" d="M 6.03125 -1.015625 L 6.03125 0 L 1.03125 0 L 1.03125 -8.3125 L 2.203125 -8.3125 L 2.203125 -1.015625 Z M 6.03125 -1.015625 "/></g></g><g style="fill:#000000;fill-opacity:1;"><g transform="translate(211.590661, 278.725616)"><path style="stroke:none" d=""/></g></g><g style="fill:#000000;fill-opacity:1;"><g transform="translate(215.670674, 278.725616)"><path style="stroke:none" d="M 6.265625 -8.3125 L 7.421875 -8.3125 L 7.421875 0 L 6.265625 0 L 6.265625 -3.84375 L 2.203125 -3.84375 L 2.203125 0 L 1.03125 0 L 1.03125 -8.3125 L 2.203125 -8.3125 L 2.203125 -4.84375 L 6.265625 -4.84375 Z M 6.265625 -8.3125 "/></g></g><g style="fill:#000000;fill-opacity:1;"><g transform="translate(225.438698, 278.725616)"><path style="stroke:none" d="M 0.703125 -4.15625 C 0.703125 -4.875 0.804688 -5.503906 1.015625 -6.046875 C 1.222656 -6.585938 1.507812 -7.039062 1.875 -7.40625 C 2.238281 -7.769531 2.660156 -8.046875 3.140625 -8.234375 C 3.628906 -8.421875 4.144531 -8.515625 4.6875 -8.515625 C 5.226562 -8.515625 5.734375 -8.421875 6.203125 -8.234375 C 6.679688 -8.046875 7.097656 -7.769531 7.453125 -7.40625 C 7.816406 -7.039062 8.101562 -6.585938 8.3125 -6.046875 C 8.53125 -5.503906 8.640625 -4.875 8.640625 -4.15625 C 8.640625 -3.445312 8.53125 -2.820312 8.3125 -2.28125 C 8.101562 -1.738281 7.816406 -1.285156 7.453125 -0.921875 C 7.097656 -0.554688 6.679688 -0.28125 6.203125 -0.09375 C 5.734375 0.09375 5.226562 0.1875 4.6875 0.1875 C 4.144531 0.1875 3.628906 0.09375 3.140625 -0.09375 C 2.660156 -0.28125 2.238281 -0.554688 1.875 -0.921875 C 1.507812 -1.285156 1.222656 -1.738281 1.015625 -2.28125 C 0.804688 -2.820312 0.703125 -3.445312 0.703125 -4.15625 Z M 1.921875 -4.15625 C 1.921875 -3.65625 1.984375 -3.195312 2.109375 -2.78125 C 2.234375 -2.375 2.414062 -2.023438 2.65625 -1.734375 C 2.894531 -1.453125 3.179688 -1.234375 3.515625 -1.078125 C 3.859375 -0.921875 4.242188 -0.84375 4.671875 -0.84375 C 5.085938 -0.84375 5.460938 -0.921875 5.796875 -1.078125 C 6.140625 -1.234375 6.425781 -1.453125 6.65625 -1.734375 C 6.894531 -2.023438 7.078125 -2.375 7.203125 -2.78125 C 7.335938 -3.195312 7.40625 -3.65625 7.40625 -4.15625 C 7.40625 -4.664062 7.335938 -5.125 7.203125 -5.53125 C 7.078125 -5.945312 6.894531 -6.296875 6.65625 -6.578125 C 6.425781 -6.867188 6.140625 -7.09375 5.796875 -7.25 C 5.460938 -7.40625 5.085938 -7.484375 4.671875 -7.484375 C 4.242188 -7.484375 3.859375 -7.40625 3.515625 -7.25 C 3.179688 -7.09375 2.894531 -6.867188 2.65625 -6.578125 C 2.414062 -6.296875 2.234375 -5.945312 2.109375 -5.53125 C 1.984375 -5.125 1.921875 -4.664062 1.921875 -4.15625 Z M 1.921875 -4.15625 "/></g></g><g style="fill:#000000;fill-opacity:1;"><g transform="translate(236.082721, 278.725616)"><path style="stroke:none" d="M 6.109375 -4.09375 L 7.265625 -4.09375 L 7.265625 -0.203125 C 7.171875 -0.171875 7.035156 -0.132812 6.859375 -0.09375 C 6.679688 -0.0507812 6.472656 -0.015625 6.234375 0.015625 C 5.992188 0.0546875 5.734375 0.09375 5.453125 0.125 C 5.179688 0.15625 4.898438 0.171875 4.609375 0.171875 C 4.023438 0.171875 3.492188 0.078125 3.015625 -0.109375 C 2.535156 -0.304688 2.125 -0.585938 1.78125 -0.953125 C 1.4375 -1.328125 1.171875 -1.78125 0.984375 -2.3125 C 0.796875 -2.851562 0.703125 -3.46875 0.703125 -4.15625 C 0.703125 -4.851562 0.804688 -5.472656 1.015625 -6.015625 C 1.222656 -6.554688 1.503906 -7.007812 1.859375 -7.375 C 2.222656 -7.75 2.644531 -8.03125 3.125 -8.21875 C 3.613281 -8.414062 4.132812 -8.515625 4.6875 -8.515625 C 5.0625 -8.515625 5.394531 -8.488281 5.6875 -8.4375 C 5.976562 -8.382812 6.226562 -8.328125 6.4375 -8.265625 C 6.644531 -8.203125 6.816406 -8.140625 6.953125 -8.078125 C 7.085938 -8.015625 7.175781 -7.96875 7.21875 -7.9375 L 6.859375 -6.953125 C 6.617188 -7.109375 6.304688 -7.234375 5.921875 -7.328125 C 5.546875 -7.429688 5.15625 -7.484375 4.75 -7.484375 C 4.320312 -7.484375 3.9375 -7.40625 3.59375 -7.25 C 3.25 -7.101562 2.953125 -6.882812 2.703125 -6.59375 C 2.460938 -6.3125 2.273438 -5.960938 2.140625 -5.546875 C 2.003906 -5.140625 1.9375 -4.675781 1.9375 -4.15625 C 1.9375 -3.664062 1.992188 -3.21875 2.109375 -2.8125 C 2.222656 -2.40625 2.394531 -2.050781 2.625 -1.75 C 2.863281 -1.457031 3.15625 -1.234375 3.5 -1.078125 C 3.851562 -0.921875 4.265625 -0.84375 4.734375 -0.84375 C 5.078125 -0.84375 5.363281 -0.859375 5.59375 -0.890625 C 5.832031 -0.929688 6.003906 -0.96875 6.109375 -1 Z M 6.109375 -4.09375 "/></g></g><g style="fill:#000000;fill-opacity:1;"><g transform="translate(245.454745, 278.725616)"><path style="stroke:none" d="M 6.59375 0 C 6.457031 -0.363281 6.328125 -0.71875 6.203125 -1.0625 C 6.085938 -1.40625 5.960938 -1.757812 5.828125 -2.125 L 2.0625 -2.125 L 1.3125 0 L 0.09375 0 C 0.414062 -0.875 0.71875 -1.6875 1 -2.4375 C 1.28125 -3.1875 1.550781 -3.894531 1.8125 -4.5625 C 2.082031 -5.238281 2.347656 -5.882812 2.609375 -6.5 C 2.878906 -7.113281 3.15625 -7.71875 3.4375 -8.3125 L 4.515625 -8.3125 C 4.796875 -7.71875 5.066406 -7.113281 5.328125 -6.5 C 5.597656 -5.882812 5.867188 -5.238281 6.140625 -4.5625 C 6.410156 -3.894531 6.679688 -3.1875 6.953125 -2.4375 C 7.234375 -1.6875 7.535156 -0.875 7.859375 0 Z M 5.5 -3.078125 C 5.238281 -3.773438 4.984375 -4.445312 4.734375 -5.09375 C 4.484375 -5.75 4.222656 -6.378906 3.953125 -6.984375 C 3.671875 -6.378906 3.398438 -5.75 3.140625 -5.09375 C 2.890625 -4.445312 2.644531 -3.773438 2.40625 -3.078125 Z M 5.5 -3.078125 "/></g></g><g style="fill:#000000;fill-opacity:1;"><g transform="translate(254.71876, 278.725616)"><path style="stroke:none" d="M 5.09375 -3.484375 C 5.226562 -3.316406 5.390625 -3.101562 5.578125 -2.84375 C 5.773438 -2.582031 5.976562 -2.296875 6.1875 -1.984375 C 6.394531 -1.671875 6.597656 -1.34375 6.796875 -1 C 7.003906 -0.65625 7.179688 -0.320312 7.328125 0 L 6.0625 0 C 5.894531 -0.300781 5.71875 -0.609375 5.53125 -0.921875 C 5.34375 -1.234375 5.15625 -1.53125 4.96875 -1.8125 C 4.78125 -2.101562 4.585938 -2.367188 4.390625 -2.609375 C 4.203125 -2.859375 4.035156 -3.078125 3.890625 -3.265625 C 3.785156 -3.253906 3.675781 -3.25 3.5625 -3.25 C 3.457031 -3.25 3.347656 -3.25 3.234375 -3.25 L 2.203125 -3.25 L 2.203125 0 L 1.03125 0 L 1.03125 -8.203125 C 1.363281 -8.273438 1.726562 -8.328125 2.125 -8.359375 C 2.53125 -8.390625 2.898438 -8.40625 3.234375 -8.40625 C 4.398438 -8.40625 5.289062 -8.179688 5.90625 -7.734375 C 6.519531 -7.296875 6.828125 -6.640625 6.828125 -5.765625 C 6.828125 -5.210938 6.679688 -4.738281 6.390625 -4.34375 C 6.097656 -3.957031 5.664062 -3.671875 5.09375 -3.484375 Z M 3.34375 -7.375 C 2.84375 -7.375 2.460938 -7.363281 2.203125 -7.34375 L 2.203125 -4.21875 L 3.03125 -4.21875 C 3.425781 -4.21875 3.78125 -4.234375 4.09375 -4.265625 C 4.414062 -4.304688 4.6875 -4.382812 4.90625 -4.5 C 5.132812 -4.613281 5.304688 -4.769531 5.421875 -4.96875 C 5.546875 -5.175781 5.609375 -5.445312 5.609375 -5.78125 C 5.609375 -6.09375 5.546875 -6.351562 5.421875 -6.5625 C 5.304688 -6.769531 5.144531 -6.929688 4.9375 -7.046875 C 4.726562 -7.171875 4.484375 -7.253906 4.203125 -7.296875 C 3.929688 -7.347656 3.644531 -7.375 3.34375 -7.375 Z M 3.34375 -7.375 "/></g></g></g></svg>