<svg xmlns="http://www.w3.org/2000/svg" xmlns:xlink="http://www.w3.org/1999/xlink" width="500" zoomAndPan="magnify" viewBox="0 0 375 374.999991" height="500" preserveAspectRatio="xMidYMid meet" version="1.2"><defs><clipPath id="14447f2802"><path d="M 132.863281 158 L 156 158 L 156 196 L 132.863281 196 Z M 132.863281 158 "/></clipPath><clipPath id="163e1bbd62"><path d="M 160 160 L 185 160 L 185 206.292969 L 160 206.292969 Z M 160 160 "/></clipPath><clipPath id="aeb424e799"><path d="M 189 145 L 215 145 L 215 206.292969 L 189 206.292969 Z M 189 145 "/></clipPath><clipPath id="5493dfac28"><path d="M 219 122 L 242.363281 122 L 242.363281 196 L 219 196 Z M 219 122 "/></clipPath><clipPath id="63c94d2871"><path d="M 158 99.042969 L 198 99.042969 L 198 122 L 158 122 Z M 158 99.042969 "/></clipPath></defs><g id="6414e02847"><g clip-rule="nonzero" clip-path="url(#14447f2802)"><path style=" stroke:none;fill-rule:nonzero;fill:#0569be;fill-opacity:1;" d="M 155.027344 163.324219 L 155.027344 195.972656 C 154.171875 195.289062 153.226562 194.609375 152.371094 193.929688 C 141.757812 185.148438 134.476562 172.445312 132.851562 158.042969 C 139.785156 160.765625 147.320312 162.558594 155.027344 163.324219 Z M 155.027344 163.324219 "/></g><g clip-rule="nonzero" clip-path="url(#163e1bbd62)"><path style=" stroke:none;fill-rule:nonzero;fill:#080d45;fill-opacity:1;" d="M 184.820312 160.597656 L 184.820312 206.285156 C 183.964844 206.285156 183.109375 206.113281 182.25 206.03125 C 175.230469 205.519531 168.722656 203.558594 162.730469 200.574219 C 161.875 200.152344 161.019531 199.722656 160.160156 199.210938 L 160.160156 163.582031 C 161.019531 163.664062 161.875 163.664062 162.730469 163.664062 C 170.351562 163.667969 177.800781 162.644531 184.820312 160.597656 Z M 184.820312 160.597656 "/></g><g clip-rule="nonzero" clip-path="url(#aeb424e799)"><path style=" stroke:none;fill-rule:nonzero;fill:#0569be;fill-opacity:1;" d="M 214.617188 145.085938 L 214.617188 199.039062 C 213.761719 199.636719 212.90625 200.0625 212.046875 200.492188 C 206.140625 203.558594 199.546875 205.519531 192.609375 206.03125 C 191.753906 206.113281 190.8125 206.285156 189.957031 206.285156 L 189.957031 158.976562 C 199.035156 155.824219 207.339844 151.050781 214.617188 145.085938 Z M 214.617188 145.085938 "/></g><g clip-rule="nonzero" clip-path="url(#5493dfac28)"><path style=" stroke:none;fill-rule:nonzero;fill:#080d45;fill-opacity:1;" d="M 242.355469 151.644531 C 242.355469 168.695312 234.5625 183.78125 222.40625 193.84375 C 221.550781 194.523438 220.695312 195.207031 219.839844 195.71875 L 219.839844 140.398438 C 225.234375 135.195312 229.941406 129.144531 233.796875 122.496094 C 239.273438 130.933594 242.355469 140.992188 242.355469 151.644531 Z M 242.355469 151.644531 "/></g><path style=" stroke:none;fill-rule:nonzero;fill:#0569be;fill-opacity:1;" d="M 202.695312 122.953125 C 202.679688 122.972656 188.742188 132.128906 180.132812 134.65625 C 163.578125 139.601562 146.582031 136.527344 143.714844 126.964844 C 141.835938 120.8125 147.023438 111.582031 154.308594 106.085938 C 142.28125 113.777344 135.4375 124.21875 138.195312 133.226562 C 141.949219 146.195312 163.25 151.246094 185.765625 144.65625 C 196.691406 141.46875 212.035156 129.695312 212.167969 129.574219 Z M 202.695312 122.953125 "/><path style=" stroke:none;fill-rule:nonzero;fill:#0569be;fill-opacity:1;" d="M 196.269531 119.023438 L 220.859375 110.972656 L 213.695312 137.207031 Z M 196.269531 119.023438 "/><g clip-rule="nonzero" clip-path="url(#63c94d2871)"><path style=" stroke:none;fill-rule:nonzero;fill:#080d45;fill-opacity:1;" d="M 197.03125 110.816406 L 196.625 112.265625 C 195.734375 112.90625 194.523438 113.792969 193.066406 114.839844 C 190.398438 116.609375 187 118.703125 184.171875 119.507812 C 172.285156 122.972656 161.046875 120.316406 159.023438 113.390625 C 157.570312 108.640625 161.210938 103.167969 167.515625 99.0625 C 163.714844 101.960938 160.964844 106.867188 161.9375 110.089844 C 163.46875 115.164062 172.445312 116.773438 181.261719 114.195312 C 183.527344 113.550781 186.519531 111.941406 188.945312 110.574219 C 191.289062 109.207031 193.148438 107.996094 193.148438 107.996094 Z M 197.03125 110.816406 "/></g><path style=" stroke:none;fill-rule:nonzero;fill:#080d45;fill-opacity:1;" d="M 198.996094 104.515625 L 197.113281 111.335938 L 196.6875 112.871094 L 195.3125 118.070312 L 192.917969 115.597656 L 188.554688 111.082031 L 186.238281 108.695312 Z M 198.996094 104.515625 "/><g style="fill:#080d45;fill-opacity:1;"><g transform="translate(76.073426, 253.494687)"><path style="stroke:none" d="M 24.171875 0 L 24.171875 -2.125 L 24.5625 -2.125 C 24.976562 -2.125 25.34375 -2.148438 25.65625 -2.203125 C 25.976562 -2.253906 26.242188 -2.359375 26.453125 -2.515625 C 26.660156 -2.671875 26.816406 -2.894531 26.921875 -3.1875 C 27.023438 -3.488281 27.078125 -3.878906 27.078125 -4.359375 L 27.078125 -24.625 L 19.015625 0 L 16.296875 0 L 7.828125 -24.625 L 7.828125 -4.734375 C 7.828125 -4.160156 7.894531 -3.703125 8.03125 -3.359375 C 8.175781 -3.023438 8.375 -2.765625 8.625 -2.578125 C 8.875 -2.398438 9.179688 -2.28125 9.546875 -2.21875 C 9.921875 -2.15625 10.34375 -2.125 10.8125 -2.125 L 11.046875 -2.125 L 11.046875 0 L 1.109375 0 L 1.109375 -2.125 L 2.796875 -2.125 C 3.078125 -2.125 3.34375 -2.148438 3.59375 -2.203125 C 3.84375 -2.253906 4.0625 -2.363281 4.25 -2.53125 C 4.4375 -2.695312 4.582031 -2.9375 4.6875 -3.25 C 4.789062 -3.570312 4.84375 -3.992188 4.84375 -4.515625 L 4.84375 -24.015625 C 4.84375 -24.546875 4.789062 -24.96875 4.6875 -25.28125 C 4.582031 -25.601562 4.4375 -25.847656 4.25 -26.015625 C 4.0625 -26.191406 3.84375 -26.304688 3.59375 -26.359375 C 3.34375 -26.421875 3.078125 -26.453125 2.796875 -26.453125 L 1.109375 -26.453125 L 1.109375 -28.5625 L 12.640625 -28.5625 L 19.28125 -9.234375 L 25.65625 -28.5625 L 36.96875 -28.5625 L 36.96875 -26.453125 L 35.28125 -26.453125 C 35 -26.453125 34.734375 -26.421875 34.484375 -26.359375 C 34.234375 -26.304688 34.015625 -26.1875 33.828125 -26 C 33.648438 -25.820312 33.507812 -25.5625 33.40625 -25.21875 C 33.300781 -24.882812 33.25 -24.429688 33.25 -23.859375 L 33.25 -4.734375 C 33.25 -4.160156 33.300781 -3.703125 33.40625 -3.359375 C 33.507812 -3.023438 33.648438 -2.765625 33.828125 -2.578125 C 34.015625 -2.398438 34.234375 -2.28125 34.484375 -2.21875 C 34.734375 -2.15625 35 -2.125 35.28125 -2.125 L 36.96875 -2.125 L 36.96875 0 Z M 24.171875 0 "/></g></g><g style="fill:#080d45;fill-opacity:1;"><g transform="translate(114.14342, 253.494687)"><path style="stroke:none" d="M 8.71875 -9.390625 L 7.5625 -5.953125 C 7.457031 -5.628906 7.347656 -5.25 7.234375 -4.8125 C 7.128906 -4.375 7.078125 -3.992188 7.078125 -3.671875 C 7.078125 -3.410156 7.128906 -3.179688 7.234375 -2.984375 C 7.335938 -2.796875 7.472656 -2.640625 7.640625 -2.515625 C 7.804688 -2.390625 7.992188 -2.289062 8.203125 -2.21875 C 8.421875 -2.15625 8.648438 -2.125 8.890625 -2.125 L 10.578125 -2.125 L 10.578125 0 L 0.15625 0 L 0.15625 -2.125 L 0.640625 -2.125 C 0.992188 -2.125 1.316406 -2.160156 1.609375 -2.234375 C 1.898438 -2.316406 2.171875 -2.46875 2.421875 -2.6875 C 2.679688 -2.90625 2.925781 -3.203125 3.15625 -3.578125 C 3.382812 -3.953125 3.613281 -4.441406 3.84375 -5.046875 L 12.53125 -28.5625 L 18.015625 -28.5625 L 26.375 -5 C 26.570312 -4.4375 26.773438 -3.96875 26.984375 -3.59375 C 27.203125 -3.226562 27.4375 -2.9375 27.6875 -2.71875 C 27.945312 -2.507812 28.21875 -2.359375 28.5 -2.265625 C 28.789062 -2.171875 29.09375 -2.125 29.40625 -2.125 L 30.125 -2.125 L 30.125 0 L 16.921875 0 L 16.921875 -2.125 L 18.484375 -2.125 C 18.679688 -2.125 18.882812 -2.15625 19.09375 -2.21875 C 19.300781 -2.28125 19.484375 -2.367188 19.640625 -2.484375 C 19.804688 -2.609375 19.941406 -2.769531 20.046875 -2.96875 C 20.148438 -3.164062 20.203125 -3.398438 20.203125 -3.671875 C 20.203125 -3.992188 20.160156 -4.304688 20.078125 -4.609375 C 20.003906 -4.910156 19.925781 -5.171875 19.84375 -5.390625 L 18.4375 -9.390625 Z M 15.53125 -18.40625 C 15.382812 -18.863281 15.238281 -19.34375 15.09375 -19.84375 C 14.945312 -20.34375 14.796875 -20.851562 14.640625 -21.375 C 14.492188 -21.894531 14.351562 -22.410156 14.21875 -22.921875 C 14.082031 -23.441406 13.960938 -23.9375 13.859375 -24.40625 C 13.734375 -24 13.59375 -23.554688 13.4375 -23.078125 C 13.28125 -22.597656 13.113281 -22.101562 12.9375 -21.59375 C 12.769531 -21.082031 12.597656 -20.570312 12.421875 -20.0625 C 12.242188 -19.550781 12.078125 -19.0625 11.921875 -18.59375 L 9.546875 -11.84375 L 17.640625 -11.84375 Z M 15.53125 -18.40625 "/></g></g><g style="fill:#080d45;fill-opacity:1;"><g transform="translate(144.248, 253.494687)"><path style="stroke:none" d="M 1.109375 -2.125 L 2.796875 -2.125 C 3.066406 -2.125 3.328125 -2.148438 3.578125 -2.203125 C 3.828125 -2.253906 4.046875 -2.363281 4.234375 -2.53125 C 4.421875 -2.695312 4.566406 -2.9375 4.671875 -3.25 C 4.785156 -3.570312 4.84375 -3.992188 4.84375 -4.515625 L 4.84375 -24.015625 C 4.84375 -24.546875 4.785156 -24.96875 4.671875 -25.28125 C 4.566406 -25.601562 4.421875 -25.847656 4.234375 -26.015625 C 4.046875 -26.191406 3.828125 -26.304688 3.578125 -26.359375 C 3.328125 -26.421875 3.066406 -26.453125 2.796875 -26.453125 L 1.109375 -26.453125 L 1.109375 -28.5625 L 14.015625 -28.5625 C 17.785156 -28.5625 20.550781 -27.929688 22.3125 -26.671875 C 24.082031 -25.410156 24.96875 -23.570312 24.96875 -21.15625 C 24.96875 -20.101562 24.8125 -19.164062 24.5 -18.34375 C 24.1875 -17.519531 23.769531 -16.800781 23.25 -16.1875 C 22.738281 -15.582031 22.15625 -15.066406 21.5 -14.640625 C 20.851562 -14.222656 20.191406 -13.875 19.515625 -13.59375 L 24.28125 -5.390625 C 24.625 -4.816406 24.953125 -4.320312 25.265625 -3.90625 C 25.585938 -3.5 25.90625 -3.160156 26.21875 -2.890625 C 26.539062 -2.628906 26.867188 -2.4375 27.203125 -2.3125 C 27.546875 -2.1875 27.910156 -2.125 28.296875 -2.125 L 28.453125 -2.125 L 28.453125 0 L 27.140625 0 C 25.941406 0 24.894531 -0.046875 24 -0.140625 C 23.113281 -0.234375 22.332031 -0.410156 21.65625 -0.671875 C 20.988281 -0.941406 20.410156 -1.3125 19.921875 -1.78125 C 19.429688 -2.25 18.976562 -2.851562 18.5625 -3.59375 L 13.8125 -12.40625 L 11.15625 -12.40625 L 11.15625 -4.515625 C 11.15625 -3.992188 11.207031 -3.570312 11.3125 -3.25 C 11.425781 -2.9375 11.578125 -2.695312 11.765625 -2.53125 C 11.960938 -2.363281 12.179688 -2.253906 12.421875 -2.203125 C 12.671875 -2.148438 12.929688 -2.125 13.203125 -2.125 L 14.921875 -2.125 L 14.921875 0 L 1.109375 0 Z M 11.15625 -14.734375 L 13.40625 -14.734375 C 14.332031 -14.734375 15.101562 -14.851562 15.71875 -15.09375 C 16.332031 -15.34375 16.828125 -15.710938 17.203125 -16.203125 C 17.578125 -16.691406 17.84375 -17.300781 18 -18.03125 C 18.164062 -18.769531 18.25 -19.628906 18.25 -20.609375 C 18.25 -21.628906 18.15625 -22.488281 17.96875 -23.1875 C 17.789062 -23.894531 17.503906 -24.472656 17.109375 -24.921875 C 16.722656 -25.367188 16.21875 -25.691406 15.59375 -25.890625 C 14.96875 -26.097656 14.210938 -26.203125 13.328125 -26.203125 L 11.15625 -26.203125 Z M 11.15625 -14.734375 "/></g></g><g style="fill:#080d45;fill-opacity:1;"><g transform="translate(172.517412, 253.494687)"><path style="stroke:none" d="M 16.234375 -4.734375 C 16.234375 -4.160156 16.285156 -3.703125 16.390625 -3.359375 C 16.492188 -3.023438 16.640625 -2.765625 16.828125 -2.578125 C 17.015625 -2.398438 17.234375 -2.28125 17.484375 -2.21875 C 17.734375 -2.15625 18 -2.125 18.28125 -2.125 L 19.96875 -2.125 L 19.96875 0 L 6.15625 0 L 6.15625 -2.125 L 7.828125 -2.125 C 8.128906 -2.125 8.40625 -2.15625 8.65625 -2.21875 C 8.90625 -2.28125 9.117188 -2.398438 9.296875 -2.578125 C 9.484375 -2.765625 9.628906 -3.023438 9.734375 -3.359375 C 9.835938 -3.703125 9.890625 -4.160156 9.890625 -4.734375 L 9.890625 -26.125 L 6.6875 -26.125 C 6.082031 -26.125 5.578125 -26.054688 5.171875 -25.921875 C 4.773438 -25.796875 4.445312 -25.613281 4.1875 -25.375 C 3.9375 -25.132812 3.75 -24.835938 3.625 -24.484375 C 3.5 -24.128906 3.410156 -23.734375 3.359375 -23.296875 L 3.09375 -20.8125 L 0.390625 -20.8125 L 0.609375 -28.5625 L 25.53125 -28.5625 L 25.734375 -20.8125 L 23.0625 -20.8125 L 22.765625 -23.296875 C 22.710938 -23.734375 22.625 -24.128906 22.5 -24.484375 C 22.375 -24.835938 22.179688 -25.132812 21.921875 -25.375 C 21.671875 -25.613281 21.34375 -25.796875 20.9375 -25.921875 C 20.539062 -26.054688 20.039062 -26.125 19.4375 -26.125 L 16.234375 -26.125 Z M 16.234375 -4.734375 "/></g></g><g style="fill:#080d45;fill-opacity:1;"><g transform="translate(198.619781, 253.494687)"><path style="stroke:none" d="M 1.109375 0 L 1.109375 -2.125 L 2.796875 -2.125 C 3.097656 -2.125 3.367188 -2.15625 3.609375 -2.21875 C 3.859375 -2.28125 4.070312 -2.398438 4.25 -2.578125 C 4.4375 -2.765625 4.582031 -3.023438 4.6875 -3.359375 C 4.789062 -3.703125 4.84375 -4.160156 4.84375 -4.734375 L 4.84375 -23.84375 C 4.84375 -24.414062 4.789062 -24.867188 4.6875 -25.203125 C 4.582031 -25.546875 4.4375 -25.804688 4.25 -25.984375 C 4.070312 -26.171875 3.859375 -26.289062 3.609375 -26.34375 C 3.367188 -26.40625 3.097656 -26.4375 2.796875 -26.4375 L 1.109375 -26.4375 L 1.109375 -28.5625 L 14.921875 -28.5625 L 14.921875 -26.4375 L 13.25 -26.4375 C 12.957031 -26.4375 12.6875 -26.40625 12.4375 -26.34375 C 12.1875 -26.289062 11.96875 -26.171875 11.78125 -25.984375 C 11.601562 -25.804688 11.460938 -25.546875 11.359375 -25.203125 C 11.253906 -24.867188 11.203125 -24.414062 11.203125 -23.84375 L 11.203125 -4.734375 C 11.203125 -4.160156 11.253906 -3.703125 11.359375 -3.359375 C 11.460938 -3.023438 11.601562 -2.765625 11.78125 -2.578125 C 11.96875 -2.398438 12.1875 -2.28125 12.4375 -2.21875 C 12.6875 -2.15625 12.957031 -2.125 13.25 -2.125 L 14.921875 -2.125 L 14.921875 0 Z M 4.953125 -31.390625 C 5.234375 -31.765625 5.550781 -32.195312 5.90625 -32.6875 C 6.269531 -33.1875 6.632812 -33.695312 7 -34.21875 C 7.363281 -34.75 7.703125 -35.273438 8.015625 -35.796875 C 8.335938 -36.328125 8.601562 -36.816406 8.8125 -37.265625 L 15.109375 -37.265625 L 15.109375 -36.859375 C 14.859375 -36.503906 14.445312 -36.0625 13.875 -35.53125 C 13.300781 -35.007812 12.660156 -34.460938 11.953125 -33.890625 C 11.242188 -33.316406 10.507812 -32.757812 9.75 -32.21875 C 8.988281 -31.675781 8.289062 -31.222656 7.65625 -30.859375 L 4.953125 -30.859375 Z M 4.953125 -31.390625 "/></g></g><g style="fill:#080d45;fill-opacity:1;"><g transform="translate(214.648245, 253.494687)"><path style="stroke:none" d="M 23.453125 0 L 7.828125 -22.046875 L 7.828125 -4.734375 C 7.828125 -4.160156 7.882812 -3.703125 8 -3.359375 C 8.113281 -3.023438 8.257812 -2.765625 8.4375 -2.578125 C 8.625 -2.398438 8.84375 -2.28125 9.09375 -2.21875 C 9.34375 -2.15625 9.609375 -2.125 9.890625 -2.125 L 11.5625 -2.125 L 11.5625 0 L 1.109375 0 L 1.109375 -2.125 L 2.796875 -2.125 C 3.078125 -2.125 3.34375 -2.15625 3.59375 -2.21875 C 3.84375 -2.28125 4.0625 -2.398438 4.25 -2.578125 C 4.4375 -2.765625 4.582031 -3.023438 4.6875 -3.359375 C 4.789062 -3.703125 4.84375 -4.160156 4.84375 -4.734375 L 4.84375 -24.015625 C 4.84375 -24.546875 4.785156 -24.96875 4.671875 -25.28125 C 4.566406 -25.601562 4.421875 -25.847656 4.234375 -26.015625 C 4.046875 -26.191406 3.828125 -26.304688 3.578125 -26.359375 C 3.328125 -26.421875 3.066406 -26.453125 2.796875 -26.453125 L 1.109375 -26.453125 L 1.109375 -28.5625 L 10 -28.5625 L 24.125 -8.59375 L 24.125 -24.015625 C 24.125 -24.546875 24.066406 -24.96875 23.953125 -25.28125 C 23.847656 -25.601562 23.703125 -25.847656 23.515625 -26.015625 C 23.328125 -26.191406 23.109375 -26.304688 22.859375 -26.359375 C 22.609375 -26.421875 22.347656 -26.453125 22.078125 -26.453125 L 20.40625 -26.453125 L 20.40625 -28.5625 L 30.859375 -28.5625 L 30.859375 -26.453125 L 29.171875 -26.453125 C 28.898438 -26.453125 28.640625 -26.421875 28.390625 -26.359375 C 28.140625 -26.304688 27.921875 -26.1875 27.734375 -26 C 27.546875 -25.820312 27.398438 -25.5625 27.296875 -25.21875 C 27.191406 -24.882812 27.140625 -24.429688 27.140625 -23.859375 L 27.140625 0 Z M 23.453125 0 "/></g></g><g style="fill:#080d45;fill-opacity:1;"><g transform="translate(246.158487, 253.494687)"><path style="stroke:none" d="M 11.203125 -2.4375 L 19.203125 -2.4375 C 19.609375 -2.4375 19.953125 -2.507812 20.234375 -2.65625 C 20.523438 -2.8125 20.773438 -3.023438 20.984375 -3.296875 C 21.191406 -3.578125 21.359375 -3.898438 21.484375 -4.265625 C 21.609375 -4.640625 21.703125 -5.046875 21.765625 -5.484375 L 22.078125 -7.359375 L 24.859375 -7.359375 L 24.5625 0 L 1.109375 0 L 1.109375 -2.125 L 2.796875 -2.125 C 3.078125 -2.125 3.34375 -2.148438 3.59375 -2.203125 C 3.84375 -2.253906 4.0625 -2.363281 4.25 -2.53125 C 4.4375 -2.695312 4.582031 -2.9375 4.6875 -3.25 C 4.789062 -3.570312 4.84375 -3.992188 4.84375 -4.515625 L 4.84375 -23.859375 C 4.84375 -24.429688 4.789062 -24.882812 4.6875 -25.21875 C 4.582031 -25.5625 4.4375 -25.820312 4.25 -26 C 4.070312 -26.1875 3.859375 -26.304688 3.609375 -26.359375 C 3.367188 -26.421875 3.097656 -26.453125 2.796875 -26.453125 L 1.109375 -26.453125 L 1.109375 -28.5625 L 23.328125 -28.5625 L 23.484375 -21.203125 L 20.6875 -21.203125 L 20.5 -23.09375 C 20.394531 -24.070312 20.144531 -24.820312 19.75 -25.34375 C 19.363281 -25.863281 18.757812 -26.125 17.9375 -26.125 L 11.203125 -26.125 L 11.203125 -16.125 L 20.6875 -16.125 L 20.6875 -13.71875 L 11.203125 -13.71875 Z M 11.203125 -2.4375 "/></g></g><g style="fill:#080d45;fill-opacity:1;"><g transform="translate(272.260856, 253.494687)"><path style="stroke:none" d="M 24.015625 -26.53125 L 8.96875 -2.4375 L 17.609375 -2.4375 C 18.421875 -2.4375 19.085938 -2.550781 19.609375 -2.78125 C 20.140625 -3.007812 20.554688 -3.3125 20.859375 -3.6875 C 21.160156 -4.070312 21.378906 -4.5 21.515625 -4.96875 C 21.660156 -5.445312 21.757812 -5.941406 21.8125 -6.453125 L 22 -8.25 L 24.890625 -8.25 L 24.703125 0 L 1.6875 0 L 1.6875 -2 L 16.6875 -26.125 L 8.8125 -26.125 C 8.1875 -26.125 7.671875 -26.035156 7.265625 -25.859375 C 6.859375 -25.691406 6.535156 -25.445312 6.296875 -25.125 C 6.054688 -24.8125 5.878906 -24.429688 5.765625 -23.984375 C 5.660156 -23.535156 5.582031 -23.035156 5.53125 -22.484375 L 5.3125 -20.328125 L 2.4375 -20.328125 L 2.640625 -28.5625 L 24.015625 -28.5625 Z M 24.015625 -26.53125 "/></g></g><g style="fill:#080d45;fill-opacity:1;"><g transform="translate(94.461887, 273.339811)"><path style="stroke:none" d="M 3.109375 0.109375 C 2.578125 0.109375 2.132812 0.0625 1.78125 -0.03125 C 1.4375 -0.132812 1.15625 -0.265625 0.9375 -0.421875 C 0.726562 -0.578125 0.578125 -0.753906 0.484375 -0.953125 C 0.390625 -1.148438 0.34375 -1.34375 0.34375 -1.53125 C 0.34375 -1.726562 0.378906 -1.894531 0.453125 -2.03125 C 0.535156 -2.175781 0.640625 -2.289062 0.765625 -2.375 C 0.890625 -2.46875 1.03125 -2.53125 1.1875 -2.5625 C 1.34375 -2.601562 1.507812 -2.625 1.6875 -2.625 C 1.6875 -2.289062 1.722656 -1.992188 1.796875 -1.734375 C 1.878906 -1.484375 1.992188 -1.269531 2.140625 -1.09375 C 2.285156 -0.925781 2.457031 -0.800781 2.65625 -0.71875 C 2.851562 -0.632812 3.066406 -0.59375 3.296875 -0.59375 C 3.523438 -0.59375 3.726562 -0.625 3.90625 -0.6875 C 4.09375 -0.75 4.25 -0.835938 4.375 -0.953125 C 4.5 -1.066406 4.59375 -1.203125 4.65625 -1.359375 C 4.71875 -1.515625 4.75 -1.679688 4.75 -1.859375 C 4.75 -2.054688 4.707031 -2.234375 4.625 -2.390625 C 4.550781 -2.546875 4.429688 -2.691406 4.265625 -2.828125 C 4.109375 -2.960938 3.90625 -3.085938 3.65625 -3.203125 C 3.40625 -3.328125 3.117188 -3.457031 2.796875 -3.59375 C 2.378906 -3.757812 2.03125 -3.929688 1.75 -4.109375 C 1.46875 -4.296875 1.238281 -4.488281 1.0625 -4.6875 C 0.894531 -4.894531 0.773438 -5.117188 0.703125 -5.359375 C 0.628906 -5.609375 0.59375 -5.875 0.59375 -6.15625 C 0.59375 -6.519531 0.664062 -6.847656 0.8125 -7.140625 C 0.957031 -7.429688 1.15625 -7.679688 1.40625 -7.890625 C 1.664062 -8.097656 1.972656 -8.253906 2.328125 -8.359375 C 2.679688 -8.472656 3.0625 -8.53125 3.46875 -8.53125 C 3.90625 -8.53125 4.28125 -8.492188 4.59375 -8.421875 C 4.90625 -8.347656 5.164062 -8.25 5.375 -8.125 C 5.582031 -8.007812 5.734375 -7.867188 5.828125 -7.703125 C 5.929688 -7.535156 5.984375 -7.351562 5.984375 -7.15625 C 5.984375 -7.019531 5.953125 -6.890625 5.890625 -6.765625 C 5.828125 -6.648438 5.734375 -6.546875 5.609375 -6.453125 C 5.492188 -6.367188 5.34375 -6.300781 5.15625 -6.25 C 4.976562 -6.207031 4.769531 -6.1875 4.53125 -6.1875 C 4.53125 -6.351562 4.507812 -6.53125 4.46875 -6.71875 C 4.425781 -6.90625 4.351562 -7.078125 4.25 -7.234375 C 4.15625 -7.398438 4.023438 -7.535156 3.859375 -7.640625 C 3.703125 -7.753906 3.507812 -7.8125 3.28125 -7.8125 C 3.125 -7.8125 2.972656 -7.785156 2.828125 -7.734375 C 2.691406 -7.691406 2.570312 -7.625 2.46875 -7.53125 C 2.363281 -7.4375 2.28125 -7.320312 2.21875 -7.1875 C 2.15625 -7.050781 2.125 -6.894531 2.125 -6.71875 C 2.125 -6.5625 2.148438 -6.410156 2.203125 -6.265625 C 2.253906 -6.117188 2.351562 -5.972656 2.5 -5.828125 C 2.644531 -5.691406 2.84375 -5.550781 3.09375 -5.40625 C 3.34375 -5.269531 3.664062 -5.117188 4.0625 -4.953125 C 4.46875 -4.796875 4.8125 -4.628906 5.09375 -4.453125 C 5.375 -4.273438 5.601562 -4.085938 5.78125 -3.890625 C 5.96875 -3.691406 6.101562 -3.472656 6.1875 -3.234375 C 6.269531 -3.003906 6.3125 -2.75 6.3125 -2.46875 C 6.3125 -2.082031 6.238281 -1.726562 6.09375 -1.40625 C 5.945312 -1.09375 5.734375 -0.820312 5.453125 -0.59375 C 5.171875 -0.375 4.832031 -0.203125 4.4375 -0.078125 C 4.039062 0.046875 3.597656 0.109375 3.109375 0.109375 Z M 3.109375 0.109375 "/></g></g><g style="fill:#080d45;fill-opacity:1;"><g transform="translate(103.874184, 273.339811)"><path style="stroke:none" d="M 3.296875 -0.71875 L 5.65625 -0.71875 C 5.769531 -0.71875 5.867188 -0.738281 5.953125 -0.78125 C 6.046875 -0.820312 6.117188 -0.882812 6.171875 -0.96875 C 6.234375 -1.050781 6.28125 -1.144531 6.3125 -1.25 C 6.351562 -1.363281 6.382812 -1.484375 6.40625 -1.609375 L 6.5 -2.171875 L 7.3125 -2.171875 L 7.234375 0 L 0.328125 0 L 0.328125 -0.625 L 0.828125 -0.625 C 0.910156 -0.625 0.988281 -0.628906 1.0625 -0.640625 C 1.132812 -0.660156 1.195312 -0.691406 1.25 -0.734375 C 1.300781 -0.785156 1.34375 -0.859375 1.375 -0.953125 C 1.40625 -1.046875 1.421875 -1.171875 1.421875 -1.328125 L 1.421875 -7.03125 C 1.421875 -7.195312 1.40625 -7.328125 1.375 -7.421875 C 1.34375 -7.523438 1.300781 -7.601562 1.25 -7.65625 C 1.195312 -7.707031 1.132812 -7.738281 1.0625 -7.75 C 0.988281 -7.769531 0.910156 -7.78125 0.828125 -7.78125 L 0.328125 -7.78125 L 0.328125 -8.40625 L 6.875 -8.40625 L 6.921875 -6.234375 L 6.09375 -6.234375 L 6.03125 -6.796875 C 6 -7.085938 5.925781 -7.304688 5.8125 -7.453125 C 5.695312 -7.609375 5.519531 -7.6875 5.28125 -7.6875 L 3.296875 -7.6875 L 3.296875 -4.75 L 6.09375 -4.75 L 6.09375 -4.03125 L 3.296875 -4.03125 Z M 3.296875 -0.71875 "/></g></g><g style="fill:#080d45;fill-opacity:1;"><g transform="translate(114.074259, 273.339811)"><path style="stroke:none" d="M 0.328125 -0.625 L 0.828125 -0.625 C 0.898438 -0.625 0.972656 -0.628906 1.046875 -0.640625 C 1.117188 -0.660156 1.179688 -0.691406 1.234375 -0.734375 C 1.296875 -0.785156 1.34375 -0.859375 1.375 -0.953125 C 1.40625 -1.046875 1.421875 -1.171875 1.421875 -1.328125 L 1.421875 -7.0625 C 1.421875 -7.226562 1.40625 -7.359375 1.375 -7.453125 C 1.34375 -7.546875 1.296875 -7.613281 1.234375 -7.65625 C 1.179688 -7.707031 1.117188 -7.738281 1.046875 -7.75 C 0.972656 -7.769531 0.898438 -7.78125 0.828125 -7.78125 L 0.328125 -7.78125 L 0.328125 -8.40625 L 4.125 -8.40625 C 5.238281 -8.40625 6.054688 -8.21875 6.578125 -7.84375 C 7.097656 -7.476562 7.359375 -6.941406 7.359375 -6.234375 C 7.359375 -5.921875 7.3125 -5.644531 7.21875 -5.40625 C 7.125 -5.164062 7 -4.953125 6.84375 -4.765625 C 6.695312 -4.585938 6.523438 -4.4375 6.328125 -4.3125 C 6.140625 -4.1875 5.945312 -4.082031 5.75 -4 L 7.15625 -1.59375 C 7.25 -1.414062 7.34375 -1.265625 7.4375 -1.140625 C 7.53125 -1.023438 7.625 -0.925781 7.71875 -0.84375 C 7.8125 -0.769531 7.90625 -0.710938 8 -0.671875 C 8.101562 -0.640625 8.210938 -0.625 8.328125 -0.625 L 8.375 -0.625 L 8.375 0 L 7.984375 0 C 7.640625 0 7.332031 -0.0078125 7.0625 -0.03125 C 6.800781 -0.0625 6.570312 -0.113281 6.375 -0.1875 C 6.175781 -0.269531 6.003906 -0.378906 5.859375 -0.515625 C 5.722656 -0.660156 5.59375 -0.84375 5.46875 -1.0625 L 4.0625 -3.65625 L 3.28125 -3.65625 L 3.28125 -1.328125 C 3.28125 -1.171875 3.296875 -1.046875 3.328125 -0.953125 C 3.359375 -0.859375 3.398438 -0.785156 3.453125 -0.734375 C 3.515625 -0.691406 3.582031 -0.660156 3.65625 -0.640625 C 3.726562 -0.628906 3.804688 -0.625 3.890625 -0.625 L 4.390625 -0.625 L 4.390625 0 L 0.328125 0 Z M 3.28125 -4.34375 L 3.953125 -4.34375 C 4.222656 -4.34375 4.445312 -4.378906 4.625 -4.453125 C 4.8125 -4.523438 4.957031 -4.628906 5.0625 -4.765625 C 5.175781 -4.910156 5.253906 -5.09375 5.296875 -5.3125 C 5.347656 -5.53125 5.375 -5.78125 5.375 -6.0625 C 5.375 -6.363281 5.347656 -6.617188 5.296875 -6.828125 C 5.242188 -7.035156 5.15625 -7.203125 5.03125 -7.328125 C 4.914062 -7.460938 4.765625 -7.5625 4.578125 -7.625 C 4.398438 -7.6875 4.179688 -7.71875 3.921875 -7.71875 L 3.28125 -7.71875 Z M 3.28125 -4.34375 "/></g></g><g style="fill:#080d45;fill-opacity:1;"><g transform="translate(124.912597, 273.339811)"><path style="stroke:none" d="M 8.21875 -7.78125 L 7.65625 -7.78125 C 7.601562 -7.78125 7.554688 -7.769531 7.515625 -7.75 C 7.472656 -7.726562 7.429688 -7.6875 7.390625 -7.625 C 7.347656 -7.5625 7.300781 -7.472656 7.25 -7.359375 C 7.207031 -7.253906 7.15625 -7.109375 7.09375 -6.921875 L 4.6875 0 L 3.515625 0 L 1 -7.21875 C 0.957031 -7.332031 0.90625 -7.425781 0.84375 -7.5 C 0.789062 -7.570312 0.726562 -7.628906 0.65625 -7.671875 C 0.59375 -7.710938 0.523438 -7.738281 0.453125 -7.75 C 0.390625 -7.769531 0.328125 -7.78125 0.265625 -7.78125 L 0 -7.78125 L 0 -8.40625 L 3.890625 -8.40625 L 3.890625 -7.78125 L 3.34375 -7.78125 C 3.289062 -7.78125 3.234375 -7.773438 3.171875 -7.765625 C 3.117188 -7.753906 3.070312 -7.734375 3.03125 -7.703125 C 2.988281 -7.671875 2.953125 -7.628906 2.921875 -7.578125 C 2.898438 -7.523438 2.890625 -7.460938 2.890625 -7.390625 C 2.890625 -7.316406 2.898438 -7.226562 2.921875 -7.125 C 2.941406 -7.03125 2.960938 -6.953125 2.984375 -6.890625 L 4.1875 -3.265625 C 4.21875 -3.171875 4.25 -3.0625 4.28125 -2.9375 C 4.320312 -2.820312 4.351562 -2.695312 4.375 -2.5625 C 4.40625 -2.4375 4.429688 -2.3125 4.453125 -2.1875 C 4.484375 -2.0625 4.503906 -1.941406 4.515625 -1.828125 C 4.523438 -1.898438 4.546875 -1.988281 4.578125 -2.09375 C 4.609375 -2.207031 4.640625 -2.332031 4.671875 -2.46875 C 4.710938 -2.601562 4.753906 -2.734375 4.796875 -2.859375 C 4.835938 -2.992188 4.875 -3.117188 4.90625 -3.234375 L 6.125 -6.8125 C 6.144531 -6.851562 6.160156 -6.898438 6.171875 -6.953125 C 6.191406 -7.003906 6.207031 -7.054688 6.21875 -7.109375 C 6.226562 -7.160156 6.238281 -7.210938 6.25 -7.265625 C 6.257812 -7.316406 6.265625 -7.359375 6.265625 -7.390625 C 6.265625 -7.515625 6.222656 -7.609375 6.140625 -7.671875 C 6.054688 -7.742188 5.941406 -7.78125 5.796875 -7.78125 L 5.1875 -7.78125 L 5.1875 -8.40625 L 8.21875 -8.40625 Z M 8.21875 -7.78125 "/></g></g><g style="fill:#080d45;fill-opacity:1;"><g transform="translate(135.647432, 273.339811)"><path style="stroke:none" d="M 0.328125 0 L 0.328125 -0.625 L 0.828125 -0.625 C 0.910156 -0.625 0.988281 -0.628906 1.0625 -0.640625 C 1.132812 -0.660156 1.195312 -0.695312 1.25 -0.75 C 1.300781 -0.8125 1.34375 -0.890625 1.375 -0.984375 C 1.40625 -1.085938 1.421875 -1.222656 1.421875 -1.390625 L 1.421875 -7.015625 C 1.421875 -7.179688 1.40625 -7.316406 1.375 -7.421875 C 1.34375 -7.523438 1.300781 -7.601562 1.25 -7.65625 C 1.195312 -7.707031 1.132812 -7.738281 1.0625 -7.75 C 0.988281 -7.769531 0.910156 -7.78125 0.828125 -7.78125 L 0.328125 -7.78125 L 0.328125 -8.40625 L 4.390625 -8.40625 L 4.390625 -7.78125 L 3.90625 -7.78125 C 3.820312 -7.78125 3.738281 -7.769531 3.65625 -7.75 C 3.582031 -7.738281 3.519531 -7.707031 3.46875 -7.65625 C 3.414062 -7.601562 3.375 -7.523438 3.34375 -7.421875 C 3.3125 -7.316406 3.296875 -7.179688 3.296875 -7.015625 L 3.296875 -1.390625 C 3.296875 -1.222656 3.3125 -1.085938 3.34375 -0.984375 C 3.375 -0.890625 3.414062 -0.8125 3.46875 -0.75 C 3.519531 -0.695312 3.582031 -0.660156 3.65625 -0.640625 C 3.738281 -0.628906 3.820312 -0.625 3.90625 -0.625 L 4.390625 -0.625 L 4.390625 0 Z M 0.328125 0 "/></g></g><g style="fill:#080d45;fill-opacity:1;"><g transform="translate(142.880423, 273.339811)"><path style="stroke:none" d="M 5 -0.828125 C 5.289062 -0.828125 5.546875 -0.859375 5.765625 -0.921875 C 5.992188 -0.992188 6.195312 -1.082031 6.375 -1.1875 C 6.550781 -1.289062 6.703125 -1.410156 6.828125 -1.546875 C 6.960938 -1.679688 7.082031 -1.8125 7.1875 -1.9375 C 7.25 -1.894531 7.296875 -1.828125 7.328125 -1.734375 C 7.367188 -1.640625 7.390625 -1.539062 7.390625 -1.4375 C 7.390625 -1.269531 7.34375 -1.09375 7.25 -0.90625 C 7.164062 -0.726562 7.019531 -0.5625 6.8125 -0.40625 C 6.601562 -0.257812 6.328125 -0.132812 5.984375 -0.03125 C 5.640625 0.0625 5.21875 0.109375 4.71875 0.109375 C 4.039062 0.109375 3.445312 0.0078125 2.9375 -0.1875 C 2.425781 -0.394531 2 -0.6875 1.65625 -1.0625 C 1.320312 -1.445312 1.070312 -1.90625 0.90625 -2.4375 C 0.738281 -2.976562 0.65625 -3.570312 0.65625 -4.21875 C 0.65625 -4.851562 0.738281 -5.4375 0.90625 -5.96875 C 1.082031 -6.5 1.335938 -6.953125 1.671875 -7.328125 C 2.015625 -7.703125 2.4375 -7.992188 2.9375 -8.203125 C 3.445312 -8.421875 4.039062 -8.53125 4.71875 -8.53125 C 5.164062 -8.53125 5.554688 -8.492188 5.890625 -8.421875 C 6.222656 -8.347656 6.5 -8.25 6.71875 -8.125 C 6.945312 -8.007812 7.113281 -7.867188 7.21875 -7.703125 C 7.332031 -7.535156 7.390625 -7.351562 7.390625 -7.15625 C 7.390625 -7.007812 7.359375 -6.875 7.296875 -6.75 C 7.234375 -6.625 7.140625 -6.515625 7.015625 -6.421875 C 6.890625 -6.335938 6.734375 -6.269531 6.546875 -6.21875 C 6.367188 -6.164062 6.160156 -6.140625 5.921875 -6.140625 C 5.921875 -6.335938 5.898438 -6.53125 5.859375 -6.71875 C 5.816406 -6.914062 5.742188 -7.09375 5.640625 -7.25 C 5.546875 -7.40625 5.414062 -7.53125 5.25 -7.625 C 5.082031 -7.726562 4.875 -7.78125 4.625 -7.78125 C 4.257812 -7.78125 3.945312 -7.703125 3.6875 -7.546875 C 3.425781 -7.390625 3.21875 -7.15625 3.0625 -6.84375 C 2.914062 -6.539062 2.804688 -6.164062 2.734375 -5.71875 C 2.660156 -5.28125 2.625 -4.78125 2.625 -4.21875 C 2.625 -3.644531 2.664062 -3.144531 2.75 -2.71875 C 2.832031 -2.300781 2.96875 -1.953125 3.15625 -1.671875 C 3.351562 -1.390625 3.597656 -1.175781 3.890625 -1.03125 C 4.191406 -0.894531 4.5625 -0.828125 5 -0.828125 Z M 5 -0.828125 "/></g></g><g style="fill:#080d45;fill-opacity:1;"><g transform="translate(153.258747, 273.339811)"><path style="stroke:none" d="M 0.328125 0 L 0.328125 -0.625 L 0.828125 -0.625 C 0.910156 -0.625 0.988281 -0.628906 1.0625 -0.640625 C 1.132812 -0.660156 1.195312 -0.695312 1.25 -0.75 C 1.300781 -0.8125 1.34375 -0.890625 1.375 -0.984375 C 1.40625 -1.085938 1.421875 -1.222656 1.421875 -1.390625 L 1.421875 -7.015625 C 1.421875 -7.179688 1.40625 -7.316406 1.375 -7.421875 C 1.34375 -7.523438 1.300781 -7.601562 1.25 -7.65625 C 1.195312 -7.707031 1.132812 -7.738281 1.0625 -7.75 C 0.988281 -7.769531 0.910156 -7.78125 0.828125 -7.78125 L 0.328125 -7.78125 L 0.328125 -8.40625 L 4.390625 -8.40625 L 4.390625 -7.78125 L 3.90625 -7.78125 C 3.820312 -7.78125 3.738281 -7.769531 3.65625 -7.75 C 3.582031 -7.738281 3.519531 -7.707031 3.46875 -7.65625 C 3.414062 -7.601562 3.375 -7.523438 3.34375 -7.421875 C 3.3125 -7.316406 3.296875 -7.179688 3.296875 -7.015625 L 3.296875 -1.390625 C 3.296875 -1.222656 3.3125 -1.085938 3.34375 -0.984375 C 3.375 -0.890625 3.414062 -0.8125 3.46875 -0.75 C 3.519531 -0.695312 3.582031 -0.660156 3.65625 -0.640625 C 3.738281 -0.628906 3.820312 -0.625 3.90625 -0.625 L 4.390625 -0.625 L 4.390625 0 Z M 0.328125 0 "/></g></g><g style="fill:#080d45;fill-opacity:1;"><g transform="translate(160.491737, 273.339811)"><path style="stroke:none" d="M 8.625 -4.21875 C 8.625 -3.570312 8.535156 -2.976562 8.359375 -2.4375 C 8.179688 -1.90625 7.921875 -1.445312 7.578125 -1.0625 C 7.242188 -0.6875 6.832031 -0.394531 6.34375 -0.1875 C 5.851562 0.0078125 5.285156 0.109375 4.640625 0.109375 C 3.972656 0.109375 3.390625 0.0078125 2.890625 -0.1875 C 2.390625 -0.394531 1.972656 -0.6875 1.640625 -1.0625 C 1.304688 -1.445312 1.054688 -1.90625 0.890625 -2.4375 C 0.734375 -2.976562 0.65625 -3.578125 0.65625 -4.234375 C 0.65625 -4.878906 0.734375 -5.46875 0.890625 -6 C 1.054688 -6.53125 1.304688 -6.984375 1.640625 -7.359375 C 1.972656 -7.734375 2.390625 -8.023438 2.890625 -8.234375 C 3.390625 -8.441406 3.976562 -8.546875 4.65625 -8.546875 C 5.289062 -8.546875 5.851562 -8.441406 6.34375 -8.234375 C 6.84375 -8.023438 7.257812 -7.734375 7.59375 -7.359375 C 7.925781 -6.984375 8.179688 -6.53125 8.359375 -6 C 8.535156 -5.46875 8.625 -4.875 8.625 -4.21875 Z M 2.625 -4.21875 C 2.625 -3.65625 2.660156 -3.148438 2.734375 -2.703125 C 2.804688 -2.265625 2.921875 -1.894531 3.078125 -1.59375 C 3.242188 -1.289062 3.453125 -1.054688 3.703125 -0.890625 C 3.960938 -0.734375 4.273438 -0.65625 4.640625 -0.65625 C 5.003906 -0.65625 5.3125 -0.734375 5.5625 -0.890625 C 5.820312 -1.054688 6.03125 -1.289062 6.1875 -1.59375 C 6.351562 -1.894531 6.46875 -2.265625 6.53125 -2.703125 C 6.601562 -3.148438 6.640625 -3.65625 6.640625 -4.21875 C 6.640625 -4.78125 6.601562 -5.28125 6.53125 -5.71875 C 6.46875 -6.164062 6.351562 -6.539062 6.1875 -6.84375 C 6.03125 -7.144531 5.828125 -7.375 5.578125 -7.53125 C 5.328125 -7.695312 5.019531 -7.78125 4.65625 -7.78125 C 4.289062 -7.78125 3.976562 -7.695312 3.71875 -7.53125 C 3.457031 -7.375 3.242188 -7.144531 3.078125 -6.84375 C 2.921875 -6.539062 2.804688 -6.164062 2.734375 -5.71875 C 2.660156 -5.28125 2.625 -4.78125 2.625 -4.21875 Z M 2.625 -4.21875 "/></g></g><g style="fill:#080d45;fill-opacity:1;"><g transform="translate(172.273103, 273.339811)"><path style="stroke:none" d="M 3.109375 0.109375 C 2.578125 0.109375 2.132812 0.0625 1.78125 -0.03125 C 1.4375 -0.132812 1.15625 -0.265625 0.9375 -0.421875 C 0.726562 -0.578125 0.578125 -0.753906 0.484375 -0.953125 C 0.390625 -1.148438 0.34375 -1.34375 0.34375 -1.53125 C 0.34375 -1.726562 0.378906 -1.894531 0.453125 -2.03125 C 0.535156 -2.175781 0.640625 -2.289062 0.765625 -2.375 C 0.890625 -2.46875 1.03125 -2.53125 1.1875 -2.5625 C 1.34375 -2.601562 1.507812 -2.625 1.6875 -2.625 C 1.6875 -2.289062 1.722656 -1.992188 1.796875 -1.734375 C 1.878906 -1.484375 1.992188 -1.269531 2.140625 -1.09375 C 2.285156 -0.925781 2.457031 -0.800781 2.65625 -0.71875 C 2.851562 -0.632812 3.066406 -0.59375 3.296875 -0.59375 C 3.523438 -0.59375 3.726562 -0.625 3.90625 -0.6875 C 4.09375 -0.75 4.25 -0.835938 4.375 -0.953125 C 4.5 -1.066406 4.59375 -1.203125 4.65625 -1.359375 C 4.71875 -1.515625 4.75 -1.679688 4.75 -1.859375 C 4.75 -2.054688 4.707031 -2.234375 4.625 -2.390625 C 4.550781 -2.546875 4.429688 -2.691406 4.265625 -2.828125 C 4.109375 -2.960938 3.90625 -3.085938 3.65625 -3.203125 C 3.40625 -3.328125 3.117188 -3.457031 2.796875 -3.59375 C 2.378906 -3.757812 2.03125 -3.929688 1.75 -4.109375 C 1.46875 -4.296875 1.238281 -4.488281 1.0625 -4.6875 C 0.894531 -4.894531 0.773438 -5.117188 0.703125 -5.359375 C 0.628906 -5.609375 0.59375 -5.875 0.59375 -6.15625 C 0.59375 -6.519531 0.664062 -6.847656 0.8125 -7.140625 C 0.957031 -7.429688 1.15625 -7.679688 1.40625 -7.890625 C 1.664062 -8.097656 1.972656 -8.253906 2.328125 -8.359375 C 2.679688 -8.472656 3.0625 -8.53125 3.46875 -8.53125 C 3.90625 -8.53125 4.28125 -8.492188 4.59375 -8.421875 C 4.90625 -8.347656 5.164062 -8.25 5.375 -8.125 C 5.582031 -8.007812 5.734375 -7.867188 5.828125 -7.703125 C 5.929688 -7.535156 5.984375 -7.351562 5.984375 -7.15625 C 5.984375 -7.019531 5.953125 -6.890625 5.890625 -6.765625 C 5.828125 -6.648438 5.734375 -6.546875 5.609375 -6.453125 C 5.492188 -6.367188 5.34375 -6.300781 5.15625 -6.25 C 4.976562 -6.207031 4.769531 -6.1875 4.53125 -6.1875 C 4.53125 -6.351562 4.507812 -6.53125 4.46875 -6.71875 C 4.425781 -6.90625 4.351562 -7.078125 4.25 -7.234375 C 4.15625 -7.398438 4.023438 -7.535156 3.859375 -7.640625 C 3.703125 -7.753906 3.507812 -7.8125 3.28125 -7.8125 C 3.125 -7.8125 2.972656 -7.785156 2.828125 -7.734375 C 2.691406 -7.691406 2.570312 -7.625 2.46875 -7.53125 C 2.363281 -7.4375 2.28125 -7.320312 2.21875 -7.1875 C 2.15625 -7.050781 2.125 -6.894531 2.125 -6.71875 C 2.125 -6.5625 2.148438 -6.410156 2.203125 -6.265625 C 2.253906 -6.117188 2.351562 -5.972656 2.5 -5.828125 C 2.644531 -5.691406 2.84375 -5.550781 3.09375 -5.40625 C 3.34375 -5.269531 3.664062 -5.117188 4.0625 -4.953125 C 4.46875 -4.796875 4.8125 -4.628906 5.09375 -4.453125 C 5.375 -4.273438 5.601562 -4.085938 5.78125 -3.890625 C 5.96875 -3.691406 6.101562 -3.472656 6.1875 -3.234375 C 6.269531 -3.003906 6.3125 -2.75 6.3125 -2.46875 C 6.3125 -2.082031 6.238281 -1.726562 6.09375 -1.40625 C 5.945312 -1.09375 5.734375 -0.820312 5.453125 -0.59375 C 5.171875 -0.375 4.832031 -0.203125 4.4375 -0.078125 C 4.039062 0.046875 3.597656 0.109375 3.109375 0.109375 Z M 3.109375 0.109375 "/></g></g><g style="fill:#080d45;fill-opacity:1;"><g transform="translate(181.6854, 273.339811)"><path style="stroke:none" d=""/></g></g><g style="fill:#080d45;fill-opacity:1;"><g transform="translate(187.256586, 273.339811)"><path style="stroke:none" d="M 5 -0.828125 C 5.289062 -0.828125 5.546875 -0.859375 5.765625 -0.921875 C 5.992188 -0.992188 6.195312 -1.082031 6.375 -1.1875 C 6.550781 -1.289062 6.703125 -1.410156 6.828125 -1.546875 C 6.960938 -1.679688 7.082031 -1.8125 7.1875 -1.9375 C 7.25 -1.894531 7.296875 -1.828125 7.328125 -1.734375 C 7.367188 -1.640625 7.390625 -1.539062 7.390625 -1.4375 C 7.390625 -1.269531 7.34375 -1.09375 7.25 -0.90625 C 7.164062 -0.726562 7.019531 -0.5625 6.8125 -0.40625 C 6.601562 -0.257812 6.328125 -0.132812 5.984375 -0.03125 C 5.640625 0.0625 5.21875 0.109375 4.71875 0.109375 C 4.039062 0.109375 3.445312 0.0078125 2.9375 -0.1875 C 2.425781 -0.394531 2 -0.6875 1.65625 -1.0625 C 1.320312 -1.445312 1.070312 -1.90625 0.90625 -2.4375 C 0.738281 -2.976562 0.65625 -3.570312 0.65625 -4.21875 C 0.65625 -4.851562 0.738281 -5.4375 0.90625 -5.96875 C 1.082031 -6.5 1.335938 -6.953125 1.671875 -7.328125 C 2.015625 -7.703125 2.4375 -7.992188 2.9375 -8.203125 C 3.445312 -8.421875 4.039062 -8.53125 4.71875 -8.53125 C 5.164062 -8.53125 5.554688 -8.492188 5.890625 -8.421875 C 6.222656 -8.347656 6.5 -8.25 6.71875 -8.125 C 6.945312 -8.007812 7.113281 -7.867188 7.21875 -7.703125 C 7.332031 -7.535156 7.390625 -7.351562 7.390625 -7.15625 C 7.390625 -7.007812 7.359375 -6.875 7.296875 -6.75 C 7.234375 -6.625 7.140625 -6.515625 7.015625 -6.421875 C 6.890625 -6.335938 6.734375 -6.269531 6.546875 -6.21875 C 6.367188 -6.164062 6.160156 -6.140625 5.921875 -6.140625 C 5.921875 -6.335938 5.898438 -6.53125 5.859375 -6.71875 C 5.816406 -6.914062 5.742188 -7.09375 5.640625 -7.25 C 5.546875 -7.40625 5.414062 -7.53125 5.25 -7.625 C 5.082031 -7.726562 4.875 -7.78125 4.625 -7.78125 C 4.257812 -7.78125 3.945312 -7.703125 3.6875 -7.546875 C 3.425781 -7.390625 3.21875 -7.15625 3.0625 -6.84375 C 2.914062 -6.539062 2.804688 -6.164062 2.734375 -5.71875 C 2.660156 -5.28125 2.625 -4.78125 2.625 -4.21875 C 2.625 -3.644531 2.664062 -3.144531 2.75 -2.71875 C 2.832031 -2.300781 2.96875 -1.953125 3.15625 -1.671875 C 3.351562 -1.390625 3.597656 -1.175781 3.890625 -1.03125 C 4.191406 -0.894531 4.5625 -0.828125 5 -0.828125 Z M 5 -0.828125 "/></g></g><g style="fill:#080d45;fill-opacity:1;"><g transform="translate(197.634911, 273.339811)"><path style="stroke:none" d="M 8.625 -4.21875 C 8.625 -3.570312 8.535156 -2.976562 8.359375 -2.4375 C 8.179688 -1.90625 7.921875 -1.445312 7.578125 -1.0625 C 7.242188 -0.6875 6.832031 -0.394531 6.34375 -0.1875 C 5.851562 0.0078125 5.285156 0.109375 4.640625 0.109375 C 3.972656 0.109375 3.390625 0.0078125 2.890625 -0.1875 C 2.390625 -0.394531 1.972656 -0.6875 1.640625 -1.0625 C 1.304688 -1.445312 1.054688 -1.90625 0.890625 -2.4375 C 0.734375 -2.976562 0.65625 -3.578125 0.65625 -4.234375 C 0.65625 -4.878906 0.734375 -5.46875 0.890625 -6 C 1.054688 -6.53125 1.304688 -6.984375 1.640625 -7.359375 C 1.972656 -7.734375 2.390625 -8.023438 2.890625 -8.234375 C 3.390625 -8.441406 3.976562 -8.546875 4.65625 -8.546875 C 5.289062 -8.546875 5.851562 -8.441406 6.34375 -8.234375 C 6.84375 -8.023438 7.257812 -7.734375 7.59375 -7.359375 C 7.925781 -6.984375 8.179688 -6.53125 8.359375 -6 C 8.535156 -5.46875 8.625 -4.875 8.625 -4.21875 Z M 2.625 -4.21875 C 2.625 -3.65625 2.660156 -3.148438 2.734375 -2.703125 C 2.804688 -2.265625 2.921875 -1.894531 3.078125 -1.59375 C 3.242188 -1.289062 3.453125 -1.054688 3.703125 -0.890625 C 3.960938 -0.734375 4.273438 -0.65625 4.640625 -0.65625 C 5.003906 -0.65625 5.3125 -0.734375 5.5625 -0.890625 C 5.820312 -1.054688 6.03125 -1.289062 6.1875 -1.59375 C 6.351562 -1.894531 6.46875 -2.265625 6.53125 -2.703125 C 6.601562 -3.148438 6.640625 -3.65625 6.640625 -4.21875 C 6.640625 -4.78125 6.601562 -5.28125 6.53125 -5.71875 C 6.46875 -6.164062 6.351562 -6.539062 6.1875 -6.84375 C 6.03125 -7.144531 5.828125 -7.375 5.578125 -7.53125 C 5.328125 -7.695312 5.019531 -7.78125 4.65625 -7.78125 C 4.289062 -7.78125 3.976562 -7.695312 3.71875 -7.53125 C 3.457031 -7.375 3.242188 -7.144531 3.078125 -6.84375 C 2.921875 -6.539062 2.804688 -6.164062 2.734375 -5.71875 C 2.660156 -5.28125 2.625 -4.78125 2.625 -4.21875 Z M 2.625 -4.21875 "/></g></g><g style="fill:#080d45;fill-opacity:1;"><g transform="translate(209.416276, 273.339811)"><path style="stroke:none" d="M 6.90625 0 L 2.3125 -6.484375 L 2.3125 -1.390625 C 2.3125 -1.222656 2.328125 -1.085938 2.359375 -0.984375 C 2.390625 -0.890625 2.429688 -0.8125 2.484375 -0.75 C 2.535156 -0.695312 2.597656 -0.660156 2.671875 -0.640625 C 2.753906 -0.628906 2.832031 -0.625 2.90625 -0.625 L 3.40625 -0.625 L 3.40625 0 L 0.328125 0 L 0.328125 -0.625 L 0.828125 -0.625 C 0.910156 -0.625 0.988281 -0.628906 1.0625 -0.640625 C 1.132812 -0.660156 1.195312 -0.695312 1.25 -0.75 C 1.300781 -0.8125 1.34375 -0.890625 1.375 -0.984375 C 1.40625 -1.085938 1.421875 -1.222656 1.421875 -1.390625 L 1.421875 -7.0625 C 1.421875 -7.226562 1.40625 -7.359375 1.375 -7.453125 C 1.34375 -7.546875 1.296875 -7.613281 1.234375 -7.65625 C 1.179688 -7.707031 1.117188 -7.738281 1.046875 -7.75 C 0.972656 -7.769531 0.898438 -7.78125 0.828125 -7.78125 L 0.328125 -7.78125 L 0.328125 -8.40625 L 2.953125 -8.40625 L 7.109375 -2.53125 L 7.109375 -7.0625 C 7.109375 -7.226562 7.085938 -7.359375 7.046875 -7.453125 C 7.015625 -7.546875 6.972656 -7.613281 6.921875 -7.65625 C 6.867188 -7.707031 6.804688 -7.738281 6.734375 -7.75 C 6.660156 -7.769531 6.582031 -7.78125 6.5 -7.78125 L 6 -7.78125 L 6 -8.40625 L 9.078125 -8.40625 L 9.078125 -7.78125 L 8.59375 -7.78125 C 8.507812 -7.78125 8.429688 -7.769531 8.359375 -7.75 C 8.285156 -7.738281 8.21875 -7.707031 8.15625 -7.65625 C 8.101562 -7.601562 8.0625 -7.523438 8.03125 -7.421875 C 8 -7.328125 7.984375 -7.195312 7.984375 -7.03125 L 7.984375 0 Z M 6.90625 0 "/></g></g><g style="fill:#080d45;fill-opacity:1;"><g transform="translate(221.209142, 273.339811)"><path style="stroke:none" d="M 4.78125 -1.390625 C 4.78125 -1.222656 4.796875 -1.085938 4.828125 -0.984375 C 4.859375 -0.890625 4.898438 -0.8125 4.953125 -0.75 C 5.015625 -0.695312 5.082031 -0.660156 5.15625 -0.640625 C 5.226562 -0.628906 5.304688 -0.625 5.390625 -0.625 L 5.875 -0.625 L 5.875 0 L 1.8125 0 L 1.8125 -0.625 L 2.3125 -0.625 C 2.394531 -0.625 2.472656 -0.628906 2.546875 -0.640625 C 2.617188 -0.660156 2.679688 -0.695312 2.734375 -0.75 C 2.785156 -0.8125 2.828125 -0.890625 2.859375 -0.984375 C 2.890625 -1.085938 2.90625 -1.222656 2.90625 -1.390625 L 2.90625 -7.6875 L 1.96875 -7.6875 C 1.789062 -7.6875 1.640625 -7.664062 1.515625 -7.625 C 1.398438 -7.59375 1.304688 -7.539062 1.234375 -7.46875 C 1.160156 -7.394531 1.101562 -7.304688 1.0625 -7.203125 C 1.03125 -7.097656 1.003906 -6.984375 0.984375 -6.859375 L 0.90625 -6.125 L 0.109375 -6.125 L 0.171875 -8.40625 L 7.515625 -8.40625 L 7.578125 -6.125 L 6.78125 -6.125 L 6.703125 -6.859375 C 6.679688 -6.984375 6.648438 -7.097656 6.609375 -7.203125 C 6.578125 -7.304688 6.523438 -7.394531 6.453125 -7.46875 C 6.378906 -7.539062 6.28125 -7.59375 6.15625 -7.625 C 6.039062 -7.664062 5.894531 -7.6875 5.71875 -7.6875 L 4.78125 -7.6875 Z M 4.78125 -1.390625 "/></g></g><g style="fill:#080d45;fill-opacity:1;"><g transform="translate(231.409217, 273.339811)"><path style="stroke:none" d="M 2.5625 -2.765625 L 2.21875 -1.75 C 2.195312 -1.65625 2.164062 -1.539062 2.125 -1.40625 C 2.09375 -1.28125 2.078125 -1.171875 2.078125 -1.078125 C 2.078125 -1.003906 2.09375 -0.9375 2.125 -0.875 C 2.15625 -0.820312 2.195312 -0.773438 2.25 -0.734375 C 2.300781 -0.703125 2.359375 -0.675781 2.421875 -0.65625 C 2.484375 -0.632812 2.550781 -0.625 2.625 -0.625 L 3.109375 -0.625 L 3.109375 0 L 0.046875 0 L 0.046875 -0.625 L 0.1875 -0.625 C 0.289062 -0.625 0.382812 -0.632812 0.46875 -0.65625 C 0.5625 -0.6875 0.644531 -0.734375 0.71875 -0.796875 C 0.789062 -0.859375 0.859375 -0.941406 0.921875 -1.046875 C 0.992188 -1.160156 1.066406 -1.304688 1.140625 -1.484375 L 3.6875 -8.40625 L 5.296875 -8.40625 L 7.765625 -1.46875 C 7.828125 -1.300781 7.890625 -1.160156 7.953125 -1.046875 C 8.015625 -0.941406 8.082031 -0.859375 8.15625 -0.796875 C 8.226562 -0.734375 8.304688 -0.6875 8.390625 -0.65625 C 8.472656 -0.632812 8.5625 -0.625 8.65625 -0.625 L 8.875 -0.625 L 8.875 0 L 4.984375 0 L 4.984375 -0.625 L 5.4375 -0.625 C 5.5 -0.625 5.5625 -0.628906 5.625 -0.640625 C 5.6875 -0.660156 5.738281 -0.6875 5.78125 -0.71875 C 5.832031 -0.757812 5.875 -0.804688 5.90625 -0.859375 C 5.9375 -0.921875 5.953125 -0.992188 5.953125 -1.078125 C 5.953125 -1.171875 5.9375 -1.257812 5.90625 -1.34375 C 5.882812 -1.4375 5.863281 -1.519531 5.84375 -1.59375 L 5.4375 -2.765625 Z M 4.578125 -5.421875 C 4.535156 -5.554688 4.488281 -5.695312 4.4375 -5.84375 C 4.394531 -5.988281 4.351562 -6.132812 4.3125 -6.28125 C 4.269531 -6.4375 4.226562 -6.59375 4.1875 -6.75 C 4.144531 -6.90625 4.109375 -7.050781 4.078125 -7.1875 C 4.046875 -7.0625 4.003906 -6.925781 3.953125 -6.78125 C 3.910156 -6.644531 3.863281 -6.5 3.8125 -6.34375 C 3.757812 -6.195312 3.707031 -6.050781 3.65625 -5.90625 C 3.601562 -5.757812 3.554688 -5.613281 3.515625 -5.46875 L 2.8125 -3.484375 L 5.1875 -3.484375 Z M 4.578125 -5.421875 "/></g></g><g style="fill:#080d45;fill-opacity:1;"><g transform="translate(242.788071, 273.339811)"><path style="stroke:none" d="M 7.140625 -6.265625 C 7.140625 -6.003906 7.101562 -5.773438 7.03125 -5.578125 C 6.957031 -5.390625 6.851562 -5.222656 6.71875 -5.078125 C 6.59375 -4.941406 6.4375 -4.820312 6.25 -4.71875 C 6.070312 -4.625 5.875 -4.539062 5.65625 -4.46875 L 5.65625 -4.421875 C 5.925781 -4.347656 6.171875 -4.25 6.390625 -4.125 C 6.617188 -4.007812 6.8125 -3.863281 6.96875 -3.6875 C 7.132812 -3.507812 7.265625 -3.304688 7.359375 -3.078125 C 7.453125 -2.847656 7.5 -2.59375 7.5 -2.3125 C 7.5 -1.53125 7.210938 -0.945312 6.640625 -0.5625 C 6.078125 -0.1875 5.238281 0 4.125 0 L 0.328125 0 L 0.328125 -0.625 L 0.8125 -0.625 C 0.894531 -0.625 0.972656 -0.628906 1.046875 -0.640625 C 1.128906 -0.660156 1.195312 -0.695312 1.25 -0.75 C 1.300781 -0.8125 1.34375 -0.890625 1.375 -0.984375 C 1.40625 -1.085938 1.421875 -1.222656 1.421875 -1.390625 L 1.421875 -7.03125 C 1.421875 -7.1875 1.40625 -7.3125 1.375 -7.40625 C 1.34375 -7.507812 1.296875 -7.585938 1.234375 -7.640625 C 1.179688 -7.691406 1.117188 -7.726562 1.046875 -7.75 C 0.972656 -7.769531 0.894531 -7.78125 0.8125 -7.78125 L 0.328125 -7.78125 L 0.328125 -8.40625 L 3.765625 -8.40625 C 4.890625 -8.40625 5.734375 -8.234375 6.296875 -7.890625 C 6.859375 -7.546875 7.140625 -7.003906 7.140625 -6.265625 Z M 3.28125 -0.71875 L 4.0625 -0.71875 C 4.320312 -0.71875 4.546875 -0.742188 4.734375 -0.796875 C 4.921875 -0.859375 5.070312 -0.953125 5.1875 -1.078125 C 5.300781 -1.210938 5.382812 -1.378906 5.4375 -1.578125 C 5.488281 -1.785156 5.515625 -2.039062 5.515625 -2.34375 C 5.515625 -2.632812 5.488281 -2.882812 5.4375 -3.09375 C 5.394531 -3.3125 5.316406 -3.488281 5.203125 -3.625 C 5.097656 -3.757812 4.953125 -3.859375 4.765625 -3.921875 C 4.585938 -3.992188 4.363281 -4.03125 4.09375 -4.03125 L 3.28125 -4.03125 Z M 3.28125 -4.75 L 3.734375 -4.75 C 4.003906 -4.75 4.226562 -4.78125 4.40625 -4.84375 C 4.59375 -4.90625 4.738281 -4.992188 4.84375 -5.109375 C 4.957031 -5.234375 5.035156 -5.390625 5.078125 -5.578125 C 5.128906 -5.773438 5.15625 -6.003906 5.15625 -6.265625 C 5.15625 -6.535156 5.128906 -6.757812 5.078125 -6.9375 C 5.023438 -7.125 4.941406 -7.269531 4.828125 -7.375 C 4.710938 -7.488281 4.5625 -7.566406 4.375 -7.609375 C 4.195312 -7.660156 3.972656 -7.6875 3.703125 -7.6875 L 3.28125 -7.6875 Z M 3.28125 -4.75 "/></g></g><g style="fill:#080d45;fill-opacity:1;"><g transform="translate(253.212397, 273.339811)"><path style="stroke:none" d="M 0.328125 0 L 0.328125 -0.625 L 0.828125 -0.625 C 0.910156 -0.625 0.988281 -0.628906 1.0625 -0.640625 C 1.132812 -0.660156 1.195312 -0.695312 1.25 -0.75 C 1.300781 -0.8125 1.34375 -0.890625 1.375 -0.984375 C 1.40625 -1.085938 1.421875 -1.222656 1.421875 -1.390625 L 1.421875 -7.03125 C 1.421875 -7.195312 1.40625 -7.328125 1.375 -7.421875 C 1.34375 -7.523438 1.300781 -7.601562 1.25 -7.65625 C 1.195312 -7.707031 1.132812 -7.738281 1.0625 -7.75 C 0.988281 -7.769531 0.910156 -7.78125 0.828125 -7.78125 L 0.328125 -7.78125 L 0.328125 -8.40625 L 4.390625 -8.40625 L 4.390625 -7.78125 L 3.90625 -7.78125 C 3.820312 -7.78125 3.742188 -7.769531 3.671875 -7.75 C 3.597656 -7.738281 3.53125 -7.707031 3.46875 -7.65625 C 3.414062 -7.613281 3.375 -7.546875 3.34375 -7.453125 C 3.3125 -7.359375 3.296875 -7.226562 3.296875 -7.0625 L 3.296875 -0.71875 L 5.484375 -0.71875 C 5.765625 -0.71875 5.976562 -0.804688 6.125 -0.984375 C 6.28125 -1.160156 6.394531 -1.414062 6.46875 -1.75 L 6.65625 -2.625 L 7.3125 -2.625 L 7.234375 0 Z M 0.328125 0 "/></g></g><g style="fill:#080d45;fill-opacity:1;"><g transform="translate(263.423973, 273.339811)"><path style="stroke:none" d="M 3.296875 -0.71875 L 5.65625 -0.71875 C 5.769531 -0.71875 5.867188 -0.738281 5.953125 -0.78125 C 6.046875 -0.820312 6.117188 -0.882812 6.171875 -0.96875 C 6.234375 -1.050781 6.28125 -1.144531 6.3125 -1.25 C 6.351562 -1.363281 6.382812 -1.484375 6.40625 -1.609375 L 6.5 -2.171875 L 7.3125 -2.171875 L 7.234375 0 L 0.328125 0 L 0.328125 -0.625 L 0.828125 -0.625 C 0.910156 -0.625 0.988281 -0.628906 1.0625 -0.640625 C 1.132812 -0.660156 1.195312 -0.691406 1.25 -0.734375 C 1.300781 -0.785156 1.34375 -0.859375 1.375 -0.953125 C 1.40625 -1.046875 1.421875 -1.171875 1.421875 -1.328125 L 1.421875 -7.03125 C 1.421875 -7.195312 1.40625 -7.328125 1.375 -7.421875 C 1.34375 -7.523438 1.300781 -7.601562 1.25 -7.65625 C 1.195312 -7.707031 1.132812 -7.738281 1.0625 -7.75 C 0.988281 -7.769531 0.910156 -7.78125 0.828125 -7.78125 L 0.328125 -7.78125 L 0.328125 -8.40625 L 6.875 -8.40625 L 6.921875 -6.234375 L 6.09375 -6.234375 L 6.03125 -6.796875 C 6 -7.085938 5.925781 -7.304688 5.8125 -7.453125 C 5.695312 -7.609375 5.519531 -7.6875 5.28125 -7.6875 L 3.296875 -7.6875 L 3.296875 -4.75 L 6.09375 -4.75 L 6.09375 -4.03125 L 3.296875 -4.03125 Z M 3.296875 -0.71875 "/></g></g><g style="fill:#080d45;fill-opacity:1;"><g transform="translate(273.624048, 273.339811)"><path style="stroke:none" d="M 3.109375 0.109375 C 2.578125 0.109375 2.132812 0.0625 1.78125 -0.03125 C 1.4375 -0.132812 1.15625 -0.265625 0.9375 -0.421875 C 0.726562 -0.578125 0.578125 -0.753906 0.484375 -0.953125 C 0.390625 -1.148438 0.34375 -1.34375 0.34375 -1.53125 C 0.34375 -1.726562 0.378906 -1.894531 0.453125 -2.03125 C 0.535156 -2.175781 0.640625 -2.289062 0.765625 -2.375 C 0.890625 -2.46875 1.03125 -2.53125 1.1875 -2.5625 C 1.34375 -2.601562 1.507812 -2.625 1.6875 -2.625 C 1.6875 -2.289062 1.722656 -1.992188 1.796875 -1.734375 C 1.878906 -1.484375 1.992188 -1.269531 2.140625 -1.09375 C 2.285156 -0.925781 2.457031 -0.800781 2.65625 -0.71875 C 2.851562 -0.632812 3.066406 -0.59375 3.296875 -0.59375 C 3.523438 -0.59375 3.726562 -0.625 3.90625 -0.6875 C 4.09375 -0.75 4.25 -0.835938 4.375 -0.953125 C 4.5 -1.066406 4.59375 -1.203125 4.65625 -1.359375 C 4.71875 -1.515625 4.75 -1.679688 4.75 -1.859375 C 4.75 -2.054688 4.707031 -2.234375 4.625 -2.390625 C 4.550781 -2.546875 4.429688 -2.691406 4.265625 -2.828125 C 4.109375 -2.960938 3.90625 -3.085938 3.65625 -3.203125 C 3.40625 -3.328125 3.117188 -3.457031 2.796875 -3.59375 C 2.378906 -3.757812 2.03125 -3.929688 1.75 -4.109375 C 1.46875 -4.296875 1.238281 -4.488281 1.0625 -4.6875 C 0.894531 -4.894531 0.773438 -5.117188 0.703125 -5.359375 C 0.628906 -5.609375 0.59375 -5.875 0.59375 -6.15625 C 0.59375 -6.519531 0.664062 -6.847656 0.8125 -7.140625 C 0.957031 -7.429688 1.15625 -7.679688 1.40625 -7.890625 C 1.664062 -8.097656 1.972656 -8.253906 2.328125 -8.359375 C 2.679688 -8.472656 3.0625 -8.53125 3.46875 -8.53125 C 3.90625 -8.53125 4.28125 -8.492188 4.59375 -8.421875 C 4.90625 -8.347656 5.164062 -8.25 5.375 -8.125 C 5.582031 -8.007812 5.734375 -7.867188 5.828125 -7.703125 C 5.929688 -7.535156 5.984375 -7.351562 5.984375 -7.15625 C 5.984375 -7.019531 5.953125 -6.890625 5.890625 -6.765625 C 5.828125 -6.648438 5.734375 -6.546875 5.609375 -6.453125 C 5.492188 -6.367188 5.34375 -6.300781 5.15625 -6.25 C 4.976562 -6.207031 4.769531 -6.1875 4.53125 -6.1875 C 4.53125 -6.351562 4.507812 -6.53125 4.46875 -6.71875 C 4.425781 -6.90625 4.351562 -7.078125 4.25 -7.234375 C 4.15625 -7.398438 4.023438 -7.535156 3.859375 -7.640625 C 3.703125 -7.753906 3.507812 -7.8125 3.28125 -7.8125 C 3.125 -7.8125 2.972656 -7.785156 2.828125 -7.734375 C 2.691406 -7.691406 2.570312 -7.625 2.46875 -7.53125 C 2.363281 -7.4375 2.28125 -7.320312 2.21875 -7.1875 C 2.15625 -7.050781 2.125 -6.894531 2.125 -6.71875 C 2.125 -6.5625 2.148438 -6.410156 2.203125 -6.265625 C 2.253906 -6.117188 2.351562 -5.972656 2.5 -5.828125 C 2.644531 -5.691406 2.84375 -5.550781 3.09375 -5.40625 C 3.34375 -5.269531 3.664062 -5.117188 4.0625 -4.953125 C 4.46875 -4.796875 4.8125 -4.628906 5.09375 -4.453125 C 5.375 -4.273438 5.601562 -4.085938 5.78125 -3.890625 C 5.96875 -3.691406 6.101562 -3.472656 6.1875 -3.234375 C 6.269531 -3.003906 6.3125 -2.75 6.3125 -2.46875 C 6.3125 -2.082031 6.238281 -1.726562 6.09375 -1.40625 C 5.945312 -1.09375 5.734375 -0.820312 5.453125 -0.59375 C 5.171875 -0.375 4.832031 -0.203125 4.4375 -0.078125 C 4.039062 0.046875 3.597656 0.109375 3.109375 0.109375 Z M 3.109375 0.109375 "/></g></g></g></svg>