<svg xmlns="http://www.w3.org/2000/svg" xmlns:xlink="http://www.w3.org/1999/xlink" width="500" zoomAndPan="magnify" viewBox="0 0 375 374.999991" height="500" preserveAspectRatio="xMidYMid meet" version="1.2"><defs><clipPath id="93948db654"><path d="M 102.574219 72.4375 L 259 72.4375 L 259 218.6875 L 102.574219 218.6875 Z M 102.574219 72.4375 "/></clipPath><clipPath id="1290618a0e"><path d="M 211.539062 89.519531 C 211.417969 89.875 211.382812 103.261719 211.386719 120.472656 L 187.511719 133.847656 L 187.511719 102.980469 Z M 170.679688 120.488281 L 170.679688 113.789062 L 161.257812 116.308594 L 153.304688 118.453125 L 151.921875 118.832031 L 135.902344 123.144531 L 135.902344 128.398438 L 152.625 124.582031 Z M 170.679688 134.074219 L 170.679688 127.546875 L 161.117188 129.226562 L 153.066406 130.65625 L 151.671875 130.90625 L 135.902344 133.703125 L 135.902344 139.347656 L 152.613281 136.804688 Z M 170.679688 106.90625 L 170.679688 100.03125 L 161.394531 103.394531 L 153.542969 106.253906 L 152.171875 106.753906 L 135.902344 112.675781 L 135.902344 117.453125 L 152.640625 112.359375 Z M 152.597656 149.023438 L 170.679688 147.65625 L 170.679688 141.304688 L 160.980469 142.144531 L 152.828125 142.859375 L 151.421875 142.984375 L 135.90625 144.34375 L 135.90625 150.222656 L 136.085938 150.28125 Z M 242.285156 103.160156 L 242.285156 171.808594 L 258.949219 179.324219 L 258.949219 123.371094 Z M 170.679688 93.320312 L 170.679688 86.273438 L 161.535156 90.476562 L 153.78125 94.050781 L 152.421875 94.679688 L 135.898438 102.292969 L 135.898438 106.507812 L 152.648438 100.144531 Z M 170.664062 79.722656 L 170.679688 72.519531 L 161.675781 77.5625 L 152.671875 82.609375 L 135.902344 92.003906 L 135.902344 95.5625 L 152.664062 87.925781 Z M 195.535156 177.785156 L 179.152344 181.382812 L 165.027344 184.484375 L 140.039062 189.976562 L 116.304688 195.1875 L 114.550781 195.574219 L 102.582031 198.203125 L 102.582031 200.738281 L 152.367188 193.648438 L 159.472656 192.636719 L 179.15625 189.835938 L 195.539062 187.5 L 195.613281 187.511719 L 195.613281 177.765625 Z M 195.535156 159.71875 L 187.316406 162.582031 L 184.6875 163.5 L 179.152344 165.429688 L 177.652344 165.953125 L 129.285156 182.824219 L 114.546875 187.964844 L 102.582031 192.140625 L 102.582031 194.785156 L 114.546875 191.695312 L 126.425781 188.628906 L 131.292969 187.371094 L 169.84375 177.417969 L 179.148438 175.011719 L 195.535156 170.78125 L 195.605469 170.796875 L 195.605469 159.742188 Z M 179.152344 196.992188 L 102.582031 203.269531 L 102.582031 205.683594 L 179.152344 204.34375 L 195.535156 204.054688 L 195.609375 204.054688 L 195.609375 195.644531 L 195.535156 195.652344 Z M 151.050781 155.058594 L 170.457031 161.257812 L 170.5 161.238281 L 170.503906 159.28125 L 170.507812 157.167969 L 170.507812 155.058594 Z M 179.152344 210.226562 L 102.582031 207.933594 L 102.582031 210.222656 L 195.535156 218.546875 L 195.609375 218.542969 L 195.609375 210.722656 L 195.535156 210.71875 Z M 179.152344 210.226562 "/></clipPath><linearGradient x1="342.59264" gradientTransform="matrix(0.267646,0,0,0.267646,102.064455,72.518338)" y1="-26.316143" x2="277.585073" gradientUnits="userSpaceOnUse" y2="575.381797" id="9ff009b812"><stop style="stop-color:#c69738;stop-opacity:1;" offset="0"/><stop style="stop-color:#c69638;stop-opacity:1;" offset="0.103695"/><stop style="stop-color:#c69638;stop-opacity:1;" offset="0.5"/><stop style="stop-color:#c69638;stop-opacity:1;" offset="0.896305"/><stop style="stop-color:#c69638;stop-opacity:1;" offset="1"/></linearGradient><clipPath id="a820fd6960"><path d="M 114 72.4375 L 272.074219 72.4375 L 272.074219 218.6875 L 114 218.6875 Z M 114 72.4375 "/></clipPath></defs><g id="57c2dac980"><g clip-rule="nonzero" clip-path="url(#93948db654)"><g clip-rule="nonzero" clip-path="url(#1290618a0e)"><path style=" stroke:none;fill-rule:nonzero;fill:url(#9ff009b812);" d="M 102.582031 72.519531 L 102.582031 218.546875 L 258.949219 218.546875 L 258.949219 72.519531 Z M 102.582031 72.519531 "/></g></g><g clip-rule="nonzero" clip-path="url(#a820fd6960)"><path style=" stroke:none;fill-rule:nonzero;fill:#ffe5a6;fill-opacity:1;" d="M 223.179688 113.867188 L 211.542969 120.386719 L 211.542969 89.519531 L 223.179688 103.636719 Z M 170.679688 79.738281 L 187.316406 94.863281 L 187.316406 92.695312 L 170.679688 72.519531 Z M 170.679688 93.320312 L 187.316406 105.921875 L 187.316406 103.085938 L 170.679688 86.273438 Z M 170.679688 106.90625 L 187.316406 116.992188 L 187.316406 113.484375 L 170.679688 100.03125 Z M 170.679688 120.488281 L 187.316406 128.050781 L 187.316406 123.875 L 170.679688 113.789062 Z M 170.679688 134.074219 L 181.34375 137.308594 L 186.992188 134.140625 L 170.675781 127.546875 L 170.675781 134.074219 Z M 170.679688 147.65625 L 179.152344 148.941406 L 179.152344 143.015625 L 170.679688 141.304688 Z M 170.507812 161.230469 L 179.152344 157.605469 L 179.152344 155.058594 L 170.507812 155.058594 Z M 114.546875 184.714844 L 129.285156 178.53125 L 129.285156 148.113281 L 114.546875 159.003906 Z M 258.949219 184.019531 L 242.285156 177.632812 L 242.097656 177.5625 L 195.609375 159.742188 L 195.609375 170.796875 L 242.105469 183.21875 L 242.285156 183.265625 L 258.949219 187.71875 L 272.082031 191.226562 L 272.082031 189.054688 Z M 246.492188 190.039062 L 242.285156 189.023438 L 242.117188 188.984375 L 195.609375 177.765625 L 195.609375 187.515625 L 195.667969 187.503906 L 242.125 194.335938 L 258.949219 196.8125 L 272.082031 198.746094 L 272.082031 196.210938 L 258.949219 193.042969 Z M 242.136719 200.285156 L 195.609375 195.644531 L 195.609375 204.054688 L 195.667969 204.050781 L 242.148438 205.042969 L 258.949219 205.402344 L 272.082031 205.683594 L 272.082031 203.269531 L 258.949219 201.960938 Z M 242.160156 209.84375 L 195.753906 210.726562 L 195.609375 210.71875 L 195.609375 218.539062 L 258.949219 212.121094 L 272.082031 210.789062 L 272.082031 209.277344 L 258.949219 209.527344 Z M 242.160156 209.84375 "/></g><g style="fill:#d7af4d;fill-opacity:1;"><g transform="translate(125.579198, 268.009288)"><path style="stroke:none" d="M 3.0625 0 L 3.0625 -22.515625 L 6.390625 -22.515625 L 6.390625 -1.84375 C 7.773438 -1.425781 8.882812 -1.21875 9.71875 -1.21875 L 15.875 -2.28125 L 15.46875 0 Z M 3.0625 0 "/></g></g><g style="fill:#d7af4d;fill-opacity:1;"><g transform="translate(142.135296, 268.009288)"><path style="stroke:none" d="M 19.78125 -22.515625 L 19.78125 -8.703125 C 19.78125 -6.597656 19.554688 -5.007812 19.109375 -3.9375 C 18.898438 -3.46875 18.570312 -2.929688 18.125 -2.328125 C 17.6875 -1.722656 17.175781 -1.242188 16.59375 -0.890625 C 15.09375 -0.0234375 13.222656 0.40625 10.984375 0.40625 C 5.359375 0.40625 2.546875 -2.484375 2.546875 -8.265625 L 2.546875 -22.515625 L 6.015625 -22.515625 L 6.015625 -7.984375 C 6.015625 -7.328125 6.023438 -6.796875 6.046875 -6.390625 C 6.078125 -5.984375 6.195312 -5.40625 6.40625 -4.65625 C 6.625 -3.90625 6.921875 -3.300781 7.296875 -2.84375 C 7.671875 -2.394531 8.257812 -1.988281 9.0625 -1.625 C 9.863281 -1.269531 10.820312 -1.09375 11.9375 -1.09375 C 16.175781 -1.09375 18.296875 -3.359375 18.296875 -7.890625 L 18.296875 -22.515625 Z M 19.78125 -22.515625 "/></g></g><g style="fill:#d7af4d;fill-opacity:1;"><g transform="translate(164.47074, 268.009288)"><path style="stroke:none" d="M 12.0625 -12.109375 L 20.9375 0 L 16.6875 0 L 10.296875 -9.921875 L 3.09375 0 L 1.015625 0 L 9.515625 -10.90625 L 1.421875 -22.515625 L 5.671875 -22.515625 L 11.328125 -13.15625 L 18.390625 -22.515625 L 20.46875 -22.515625 Z M 12.0625 -12.109375 "/></g></g><g style="fill:#d7af4d;fill-opacity:1;"><g transform="translate(186.432225, 268.009288)"><path style="stroke:none" d="M 19.78125 -22.515625 L 19.78125 -8.703125 C 19.78125 -6.597656 19.554688 -5.007812 19.109375 -3.9375 C 18.898438 -3.46875 18.570312 -2.929688 18.125 -2.328125 C 17.6875 -1.722656 17.175781 -1.242188 16.59375 -0.890625 C 15.09375 -0.0234375 13.222656 0.40625 10.984375 0.40625 C 5.359375 0.40625 2.546875 -2.484375 2.546875 -8.265625 L 2.546875 -22.515625 L 6.015625 -22.515625 L 6.015625 -7.984375 C 6.015625 -7.328125 6.023438 -6.796875 6.046875 -6.390625 C 6.078125 -5.984375 6.195312 -5.40625 6.40625 -4.65625 C 6.625 -3.90625 6.921875 -3.300781 7.296875 -2.84375 C 7.671875 -2.394531 8.257812 -1.988281 9.0625 -1.625 C 9.863281 -1.269531 10.820312 -1.09375 11.9375 -1.09375 C 16.175781 -1.09375 18.296875 -3.359375 18.296875 -7.890625 L 18.296875 -22.515625 Z M 19.78125 -22.515625 "/></g></g><g style="fill:#d7af4d;fill-opacity:1;"><g transform="translate(208.767669, 268.009288)"><path style="stroke:none" d="M 6.390625 -10.75 L 6.390625 0 L 3.0625 0 L 3.0625 -22.515625 L 10.40625 -22.515625 C 12.695312 -22.515625 14.570312 -22.003906 16.03125 -20.984375 C 17.488281 -19.960938 18.21875 -18.617188 18.21875 -16.953125 C 18.21875 -15.285156 17.632812 -13.96875 16.46875 -13 C 15.300781 -12.039062 13.722656 -11.378906 11.734375 -11.015625 L 20.84375 0 L 16.890625 0.46875 L 9.015625 -10.75 Z M 6.390625 -11.765625 L 8.5625 -11.765625 C 12.644531 -11.765625 14.6875 -13.375 14.6875 -16.59375 C 14.6875 -17.132812 14.550781 -17.742188 14.28125 -18.421875 C 13.757812 -19.847656 12.648438 -20.789062 10.953125 -21.25 C 9.410156 -21.25 7.890625 -21.054688 6.390625 -20.671875 Z M 6.390625 -11.765625 "/></g></g><g style="fill:#d7af4d;fill-opacity:1;"><g transform="translate(230.457186, 268.009288)"><path style="stroke:none" d="M 11.65625 0 L 8.359375 0 L 8.359375 -8.359375 L 0.6875 -22.515625 L 4.390625 -22.515625 L 10.671875 -9.59375 L 16.5625 -22.515625 L 18.265625 -22.515625 L 11.65625 -8.53125 Z M 11.65625 0 "/></g></g><g style="fill:#d7af4d;fill-opacity:1;"><g transform="translate(152.908887, 288.685137)"><path style="stroke:none" d="M 3.265625 -1.484375 L 1.34375 -1.484375 L 0.90625 0 L 0.171875 0 L 2 -5.6875 L 2.609375 -5.6875 L 4.453125 0 L 3.71875 0 Z M 1.53125 -2.109375 L 3.078125 -2.109375 L 2.3125 -4.6875 Z M 1.53125 -2.109375 "/></g></g><g style="fill:#d7af4d;fill-opacity:1;"><g transform="translate(160.166251, 288.685137)"><path style="stroke:none" d="M 1.328125 -2.234375 L 1.328125 0 L 0.609375 0 L 0.609375 -5.6875 L 2.421875 -5.6875 C 2.953125 -5.6875 3.367188 -5.523438 3.671875 -5.203125 C 3.972656 -4.890625 4.125 -4.472656 4.125 -3.953125 C 4.125 -3.398438 3.976562 -2.976562 3.6875 -2.6875 C 3.40625 -2.394531 3.003906 -2.242188 2.484375 -2.234375 Z M 1.328125 -2.84375 L 2.421875 -2.84375 C 2.742188 -2.84375 2.988281 -2.9375 3.15625 -3.125 C 3.320312 -3.3125 3.40625 -3.582031 3.40625 -3.9375 C 3.40625 -4.28125 3.316406 -4.554688 3.140625 -4.765625 C 2.972656 -4.972656 2.738281 -5.078125 2.4375 -5.078125 L 1.328125 -5.078125 Z M 1.328125 -2.84375 "/></g></g><g style="fill:#d7af4d;fill-opacity:1;"><g transform="translate(167.247835, 288.685137)"><path style="stroke:none" d="M 3.265625 -1.484375 L 1.34375 -1.484375 L 0.90625 0 L 0.171875 0 L 2 -5.6875 L 2.609375 -5.6875 L 4.453125 0 L 3.71875 0 Z M 1.53125 -2.109375 L 3.078125 -2.109375 L 2.3125 -4.6875 Z M 1.53125 -2.109375 "/></g></g><g style="fill:#d7af4d;fill-opacity:1;"><g transform="translate(174.5052, 288.685137)"><path style="stroke:none" d="M 2.328125 -2.296875 L 1.328125 -2.296875 L 1.328125 0 L 0.609375 0 L 0.609375 -5.6875 L 2.203125 -5.6875 C 2.765625 -5.6875 3.1875 -5.539062 3.46875 -5.25 C 3.757812 -4.957031 3.90625 -4.535156 3.90625 -3.984375 C 3.90625 -3.628906 3.828125 -3.320312 3.671875 -3.0625 C 3.515625 -2.800781 3.296875 -2.601562 3.015625 -2.46875 L 4.109375 -0.046875 L 4.109375 0 L 3.34375 0 Z M 1.328125 -2.921875 L 2.203125 -2.921875 C 2.503906 -2.921875 2.742188 -3.015625 2.921875 -3.203125 C 3.097656 -3.398438 3.1875 -3.660156 3.1875 -3.984375 C 3.1875 -4.710938 2.851562 -5.078125 2.1875 -5.078125 L 1.328125 -5.078125 Z M 1.328125 -2.921875 "/></g></g><g style="fill:#d7af4d;fill-opacity:1;"><g transform="translate(181.399283, 288.685137)"><path style="stroke:none" d="M 3.9375 -5.078125 L 2.4375 -5.078125 L 2.4375 0 L 1.734375 0 L 1.734375 -5.078125 L 0.234375 -5.078125 L 0.234375 -5.6875 L 3.9375 -5.6875 Z M 3.9375 -5.078125 "/></g></g><g style="fill:#d7af4d;fill-opacity:1;"><g transform="translate(188.211335, 288.685137)"><path style="stroke:none" d="M 1.53125 -5.6875 L 3.015625 -1.046875 L 4.5 -5.6875 L 5.421875 -5.6875 L 5.421875 0 L 4.71875 0 L 4.71875 -2.21875 L 4.78125 -4.4375 L 3.296875 0 L 2.75 0 L 1.265625 -4.421875 L 1.328125 -2.21875 L 1.328125 0 L 0.609375 0 L 0.609375 -5.6875 Z M 1.53125 -5.6875 "/></g></g><g style="fill:#d7af4d;fill-opacity:1;"><g transform="translate(196.902294, 288.685137)"><path style="stroke:none" d="M 3.34375 -2.625 L 1.328125 -2.625 L 1.328125 -0.609375 L 3.671875 -0.609375 L 3.671875 0 L 0.609375 0 L 0.609375 -5.6875 L 3.640625 -5.6875 L 3.640625 -5.078125 L 1.328125 -5.078125 L 1.328125 -3.25 L 3.34375 -3.25 Z M 3.34375 -2.625 "/></g></g><g style="fill:#d7af4d;fill-opacity:1;"><g transform="translate(203.52294, 288.685137)"><path style="stroke:none" d="M 4.328125 0 L 3.609375 0 L 1.328125 -4.390625 L 1.328125 0 L 0.609375 0 L 0.609375 -5.6875 L 1.328125 -5.6875 L 3.625 -1.28125 L 3.625 -5.6875 L 4.328125 -5.6875 Z M 4.328125 0 "/></g></g><g style="fill:#d7af4d;fill-opacity:1;"><g transform="translate(211.124055, 288.685137)"><path style="stroke:none" d="M 3.9375 -5.078125 L 2.4375 -5.078125 L 2.4375 0 L 1.734375 0 L 1.734375 -5.078125 L 0.234375 -5.078125 L 0.234375 -5.6875 L 3.9375 -5.6875 Z M 3.9375 -5.078125 "/></g></g><g style="fill:#d7af4d;fill-opacity:1;"><g transform="translate(217.936107, 288.685137)"><path style="stroke:none" d="M 3.09375 -1.4375 C 3.09375 -1.71875 3.015625 -1.929688 2.859375 -2.078125 C 2.710938 -2.234375 2.4375 -2.382812 2.03125 -2.53125 C 1.632812 -2.675781 1.328125 -2.828125 1.109375 -2.984375 C 0.898438 -3.140625 0.742188 -3.316406 0.640625 -3.515625 C 0.535156 -3.722656 0.484375 -3.957031 0.484375 -4.21875 C 0.484375 -4.664062 0.632812 -5.035156 0.9375 -5.328125 C 1.238281 -5.617188 1.628906 -5.765625 2.109375 -5.765625 C 2.441406 -5.765625 2.738281 -5.6875 3 -5.53125 C 3.257812 -5.382812 3.457031 -5.175781 3.59375 -4.90625 C 3.738281 -4.644531 3.8125 -4.359375 3.8125 -4.046875 L 3.09375 -4.046875 C 3.09375 -4.398438 3.007812 -4.671875 2.84375 -4.859375 C 2.675781 -5.054688 2.429688 -5.15625 2.109375 -5.15625 C 1.828125 -5.15625 1.601562 -5.070312 1.4375 -4.90625 C 1.28125 -4.75 1.203125 -4.523438 1.203125 -4.234375 C 1.203125 -3.992188 1.285156 -3.789062 1.453125 -3.625 C 1.628906 -3.46875 1.898438 -3.320312 2.265625 -3.1875 C 2.816406 -3.007812 3.210938 -2.785156 3.453125 -2.515625 C 3.703125 -2.242188 3.828125 -1.890625 3.828125 -1.453125 C 3.828125 -0.984375 3.675781 -0.609375 3.375 -0.328125 C 3.070312 -0.0546875 2.664062 0.078125 2.15625 0.078125 C 1.820312 0.078125 1.515625 0.00390625 1.234375 -0.140625 C 0.953125 -0.285156 0.726562 -0.488281 0.5625 -0.75 C 0.40625 -1.007812 0.328125 -1.3125 0.328125 -1.65625 L 1.046875 -1.65625 C 1.046875 -1.300781 1.144531 -1.023438 1.34375 -0.828125 C 1.539062 -0.628906 1.8125 -0.53125 2.15625 -0.53125 C 2.46875 -0.53125 2.703125 -0.609375 2.859375 -0.765625 C 3.015625 -0.929688 3.09375 -1.15625 3.09375 -1.4375 Z M 3.09375 -1.4375 "/></g></g></g></svg>